<?xml version="1.0" encoding="utf-8"?>
<!-- Generator: Adobe Illustrator 27.2.0, SVG Export Plug-In . SVG Version: 6.00 Build 0)  -->
<svg version="1.1" id="Layer_1" xmlns="http://www.w3.org/2000/svg" xmlns:xlink="http://www.w3.org/1999/xlink" x="0px" y="0px"
	 viewBox="0 0 322 106" style="enable-background:new 0 0 322 106;" xml:space="preserve">
<style type="text/css">
	.st0{fill-rule:evenodd;clip-rule:evenodd;fill:#FEBE10;}
	.st1{fill-rule:evenodd;clip-rule:evenodd;fill:#0060A9;}
	.st2{fill-rule:evenodd;clip-rule:evenodd;fill:#ED1C2E;}
	.st3{fill-rule:evenodd;clip-rule:evenodd;fill:#FFFFFF;}
	.st4{fill:#C2302D;}
	.st5{fill:#F5AE26;}
	.st6{fill:#FFFFFF;}
	.st7{fill-rule:evenodd;clip-rule:evenodd;fill:#F0B638;}
	.st8{fill:#F0B638;}
	.st9{fill:none;stroke:#F0B638;stroke-width:0.5;stroke-miterlimit:10;}
	.st10{fill:#FFFFFF;stroke:#F0B638;stroke-width:0.5;stroke-miterlimit:10;}
	.st11{fill:#EFC13A;}
</style>
<g>
	<g>
		<g>
			<path class="st11" d="M23.64,98.4c-7.89,0-15.76,0-23.64,0c0-18.81,0-37.6,0-56.41c0-0.17,0.04-0.35,0.04-0.52
				c23.64,0,47.22,0,70.87,0c0,0.39,0,0.72,0,1.07c0,18.63,0,37.25,0,55.85c-7.89,0-15.76,0-23.64,0c0-6.36,0-12.7,0-19.04
				c-7.95,0-15.78,0-23.64,0C23.64,85.74,23.64,92.06,23.64,98.4z M18.87,50.93c-3.18,0-6.28,0-9.37,0c0,1.59,0,3.12,0,4.63
				c3.16,0,6.26,0,9.37,0C18.87,53.98,18.87,52.5,18.87,50.93z M23.66,55.55c3.18,0,6.28,0,9.37,0c0-1.57,0-3.08,0-4.63
				c-3.14,0-6.24,0-9.37,0C23.66,52.48,23.66,54,23.66,55.55z M47.24,50.93c-3.18,0-6.28,0-9.37,0c0,1.59,0,3.12,0,4.63
				c3.16,0,6.26,0,9.37,0C47.24,53.98,47.24,52.5,47.24,50.93z M52.06,50.91c0,1.59,0,3.12,0,4.65c3.16,0,6.26,0,9.35,0
				c0-1.57,0-3.1,0-4.65C58.27,50.91,55.19,50.91,52.06,50.91z M18.85,65.05c0-1.61,0-3.12,0-4.65c-3.14,0-6.26,0-9.35,0
				c0,1.59,0,3.12,0,4.65C12.64,65.05,15.73,65.05,18.85,65.05z M33.04,60.41c-3.16,0-6.26,0-9.35,0c0,1.59,0,3.12,0,4.65
				c3.14,0,6.24,0,9.35,0C33.04,63.5,33.04,61.97,33.04,60.41z M37.87,60.38c0,1.57,0,3.1,0,4.65c3.16,0,6.26,0,9.35,0
				c0-1.59,0-3.12,0-4.65C44.06,60.38,40.97,60.38,37.87,60.38z M52.03,65.03c3.18,0,6.28,0,9.37,0c0-1.57,0-3.08,0-4.63
				c-3.14,0-6.26,0-9.37,0C52.03,61.95,52.03,63.46,52.03,65.03z M18.85,74.53c0-1.61,0-3.12,0-4.67c-3.14,0-6.26,0-9.35,0
				c0,1.57,0,3.12,0,4.67C12.64,74.53,15.71,74.53,18.85,74.53z M23.68,69.86c0,1.57,0,3.1,0,4.65c3.16,0,6.26,0,9.35,0
				c0-1.59,0-3.12,0-4.65C29.88,69.86,26.78,69.86,23.68,69.86z M37.85,74.51c3.18,0,6.3,0,9.37,0c0-1.57,0-3.1,0-4.63
				c-3.14,0-6.26,0-9.37,0C37.85,71.43,37.85,72.96,37.85,74.51z M61.43,69.88c-3.18,0-6.28,0-9.37,0c0,1.59,0,3.12,0,4.63
				c3.16,0,6.26,0,9.37,0C61.43,72.94,61.43,71.43,61.43,69.88z M18.85,84.01c0-1.61,0-3.12,0-4.65c-3.14,0-6.26,0-9.35,0
				c0,1.59,0,3.12,0,4.65C12.64,84.01,15.73,84.01,18.85,84.01z M52.03,83.97c3.18,0,6.28,0,9.37,0c0-1.57,0-3.1,0-4.63
				c-3.14,0-6.26,0-9.37,0C52.03,80.91,52.03,82.42,52.03,83.97z"/>
			<path class="st11" d="M28.37,98.4c0-4.75,0-9.5,0-14.31c1.57,0,3.1,0,4.73,0c0,4.77,0,9.54,0,14.31
				C31.51,98.4,29.94,98.4,28.37,98.4z"/>
			<path class="st11" d="M37.83,98.4c0-4.75,0-9.5,0-14.31c1.57,0,3.1,0,4.73,0c0,4.77,0,9.54,0,14.31
				C40.97,98.4,39.4,98.4,37.83,98.4z"/>
			<path class="st11" d="M19.39,38.79c-2.15-1.14-4.21-2.19-6.24-3.28c-0.47-0.27-0.83-0.25-1.3,0c-2.02,1.09-4.07,2.15-6.24,3.28
				c0.31-1.86,0.5-3.63,0.93-5.31c0.45-1.67,0.17-2.87-1.24-4.01c-1.36-1.12-2.48-2.54-3.68-3.84c2.15-0.31,4.4-0.66,6.65-0.95
				c0.56-0.08,0.89-0.27,1.12-0.78c0.87-1.86,1.8-3.68,2.7-5.51c0.1-0.23,0.25-0.45,0.41-0.78c1.07,2.15,2.11,4.19,3.08,6.26
				c0.25,0.54,0.58,0.76,1.18,0.85c2.23,0.29,4.46,0.64,6.79,0.97c-0.17,0.21-0.27,0.37-0.41,0.52c-1.51,1.47-2.99,2.95-4.52,4.4
				c-0.41,0.39-0.54,0.72-0.43,1.3C18.63,34.12,18.98,36.37,19.39,38.79z"/>
			<path class="st11" d="M43.03,38.79c-1.98-1.05-3.88-2-5.72-3.04c-0.81-0.45-1.45-0.5-2.29-0.02c-1.84,1.05-3.74,2-5.74,3.06
				c0.25-1.53,0.47-2.91,0.72-4.29c0.08-0.54,0.1-1.12,0.29-1.63c0.5-1.34-0.04-2.19-1.03-3.1c-1.4-1.28-2.64-2.77-3.92-4.13
				c1.71-0.25,3.59-0.64,5.47-0.76c1.4-0.1,2.19-0.62,2.73-1.94c0.74-1.8,1.67-3.49,2.6-5.35c0.97,1.98,1.94,3.82,2.79,5.7
				c0.41,0.93,0.91,1.4,2,1.51c2.06,0.19,4.11,0.56,6.28,0.89c-0.17,0.21-0.27,0.37-0.39,0.5c-1.55,1.51-3.08,3.01-4.63,4.5
				c-0.35,0.33-0.43,0.64-0.35,1.12C42.23,34.08,42.62,36.37,43.03,38.79z"/>
			<path class="st11" d="M59.78,17.58c0.85,1.69,1.73,3.22,2.35,4.83c0.62,1.61,1.55,2.44,3.37,2.5c1.76,0.06,3.51,0.47,5.45,0.76
				c-0.74,0.72-1.38,1.34-2.02,1.96c-1.01,0.99-2.02,2-3.06,2.95c-0.39,0.37-0.5,0.7-0.39,1.24c0.41,2.27,0.78,4.54,1.2,6.94
				c-1.86-0.99-3.68-1.84-5.37-2.85c-1.07-0.64-1.9-0.68-2.99-0.02c-1.69,1.03-3.51,1.88-5.39,2.89c0.25-1.53,0.47-2.91,0.72-4.29
				c0.08-0.54,0.1-1.12,0.29-1.63c0.5-1.34-0.04-2.19-1.01-3.1c-1.4-1.28-2.62-2.77-3.9-4.15c1.69-0.25,3.57-0.64,5.45-0.76
				c1.38-0.1,2.19-0.62,2.73-1.94C57.92,21.15,58.87,19.46,59.78,17.58z"/>
		</g>
	</g>
	<g>
		<path class="st11" d="M96.17,40.7v-1.75h10.29v1.75l-4.76,0.49h-0.96L96.17,40.7z M101.7,58.14l4.76,0.49v1.75H96.17v-1.75
			l4.57-0.49H101.7z M98.63,49.07c0-3.36,0-6.75-0.1-10.11h5.67c-0.1,3.29-0.1,6.69-0.1,10.11v1c0,3.57,0,6.96,0.1,10.32h-5.67
			c0.1-3.29,0.1-6.69,0.1-10.11V49.07z M101.37,50.32v-1.9h12.43v1.9H101.37z M108.72,40.7v-1.75H119v1.75l-4.69,0.49h-0.91
			L108.72,40.7z M114.32,58.14l4.69,0.49v1.75h-10.29v-1.75l4.69-0.49H114.32z M111.06,49.07c0-3.36,0-6.75-0.1-10.11h5.67
			c-0.1,3.29-0.1,6.69-0.1,10.11v1.21c0,3.36,0,6.75,0.1,10.11h-5.67c0.1-3.29,0.1-6.69,0.1-10.32V49.07z"/>
		<path class="st11" d="M141.41,49.67c0,7.52-4.96,11.32-10.35,11.32c-5.39,0-10.36-3.72-10.36-11.32c0-7.52,5.01-11.32,10.36-11.32
			S141.41,42.07,141.41,49.67z M131.06,59.1c3.28,0,4.57-4.02,4.57-9.43c0-5.39-1.29-9.46-4.57-9.46c-3.28,0-4.58,4.07-4.58,9.46
			C126.48,55.08,127.78,59.1,131.06,59.1z"/>
		<path class="st11" d="M143.82,40.8l2.36-1.84l-0.86,6.07h-2.72l0.12-6.07h19.15l0.1,6.07h-2.7l-0.86-6.07l2.34,1.84H143.82z
			 M152.97,58.14l4.92,0.49v1.75h-11.18v-1.75l4.83-0.49H152.97z M149.55,49.07c0-3.36,0-6.75-0.1-10.11h5.67
			c-0.1,3.29-0.1,6.69-0.1,10.11v1.18c0,3.38,0,6.78,0.1,10.14h-5.67c0.1-3.29,0.1-6.69,0.1-10.11V49.07z"/>
		<path class="st11" d="M163.71,40.7v-1.75h5.25v2.24h-0.51L163.71,40.7z M168.96,58.14v2.24h-5.25v-1.75l4.73-0.49H168.96z
			 M166.22,49.07c0-3.36,0-6.75-0.1-10.11h5.67c-0.1,3.29-0.1,6.69-0.1,10.11v1.08c0,3.49,0,6.89,0.1,10.25h-5.67
			c0.1-3.29,0.1-6.69,0.1-10.11V49.07z M176.91,38.95l2.36,1.84h-10.32v-1.84h11.41l0.23,5.62h-2.72L176.91,38.95z M176.14,50.29
			h-7.18v-1.92h7.18V50.29z M181.25,54.77l-0.23,5.62h-12.06v-1.82h10.97l-2.36,1.82l0.96-5.62H181.25z M175.15,48.92l0.49-3.13
			h1.89v7.03h-1.89l-0.49-3.29V48.92z"/>
		<path class="st11" d="M183.12,40.7v-1.75h10.76v1.75l-4.83,0.49h-1.19L183.12,40.7z M188.37,58.14v2.24h-5.25v-1.75l4.73-0.49
			H188.37z M185.54,38.95h5.67c-0.1,3.31-0.1,6.71-0.1,10.11v1.72c0,2.87,0,6.26,0.1,9.6h-5.67c0.1-3.31,0.1-6.71,0.1-9.43v-1.89
			C185.64,45.69,185.64,42.29,185.54,38.95z M200.35,53.99l-0.33,6.39h-11.65v-1.87h10.55l-2.48,1.87l1.28-6.39H200.35z"/>
		<path class="st11" d="M212.53,55.95c0-1.72-0.85-2.5-2.82-3.38l-1.38-0.63c-3.84-1.75-6.06-3.69-6.06-7.3
			c0-3.92,3.16-6.29,8.11-6.29c2.33,0,4.57,0.61,6.17,1.66l-0.27,4.57h-2.99l-0.8-4.93l2.63,0.94v1.63
			c-1.74-1.26-2.97-1.93-4.65-1.93c-1.86,0-3.36,1.18-3.36,2.97c0,1.73,1.03,2.63,2.97,3.49l1.53,0.7c4.17,1.88,5.88,3.67,5.88,6.98
			c0,3.85-2.95,6.57-8.52,6.57c-2.45,0-5.2-0.55-7.08-1.71l0.2-4.85h3.04l0.85,5.28l-2.52-0.8v-1.57c2.07,1.11,3.42,1.7,5.52,1.7
			C211.28,59.06,212.53,57.71,212.53,55.95z"/>
		<path class="st11" d="M225.7,58.63l3.36-0.49h0.58l3.09,0.49v1.75h-7.03V58.63z M234.97,38.91h3.37l7.34,21.48h-5.58l-5.57-17.52
			l1.22-1.65l-6.23,19.16h-1.93L234.97,38.91z M231.46,52.26h8.81l0.73,1.9h-10.09L231.46,52.26z M236.95,58.7l3.69-0.49h2.18
			L247,58.7v1.68h-10.06V58.7z"/>
		<path class="st11" d="M248.27,58.63l3.47-0.49h0.94l4.2,0.49v1.75h-8.61V58.63z M249.98,40.1l1.88,0.92l-3.54-0.3v-1.78h7.37
			l11.7,16.06v5.44h-2.76L249.98,40.1z M251.05,38.95l2.1,1.78v19.66h-2.1V38.95z M261.55,38.95h8.61v1.75l-3.31,0.49h-0.91
			l-4.39-0.49V38.95z M265.29,38.95h2.1v21.5l-2.1-2.1V38.95z"/>
		<path class="st11" d="M271.84,40.7v-1.75h5.25v2.24h-0.51L271.84,40.7z M277.09,58.14v2.24h-5.25v-1.75l4.73-0.49H277.09z
			 M274.35,49.07c0-3.36,0-6.75-0.1-10.11h5.67c-0.1,3.29-0.1,6.69-0.1,10.11v1.08c0,3.49,0,6.89,0.1,10.25h-5.67
			c0.1-3.29,0.1-6.69,0.1-10.22V49.07z M277.09,58.51h3.88c3.73,0,6.04-3.2,6.04-8.85c0-5.74-2.31-8.83-5.99-8.83h-3.94v-1.88h4.45
			c6.95,0,11.14,4.06,11.14,10.66c0,6.81-4.59,10.78-11.72,10.78h-3.86V58.51z"/>
		<path class="st11" d="M96.17,75.81v-1.75h5.25v2.24h-0.51L96.17,75.81z M101.93,93.25l4.74,0.49v1.75h-10.5v-1.75l4.74-0.49
			H101.93z M98.68,84.17c0-3.36,0-6.75-0.1-10.11h5.58c-0.1,3.32-0.1,6.66-0.1,10.2v1c0,3.47,0,6.87,0.1,10.23h-5.58
			c0.1-3.29,0.1-6.69,0.1-10.11V84.17z M101.47,83.81h3.84c3.24,0,4.23-1.89,4.23-3.99c0-2.62-1.42-3.89-4.08-3.89h-4.04v-1.88h5.36
			c5.13,0,7.97,2.03,7.97,5.41c0,2.49-1.86,5.05-7.64,5.36l0.03-0.33c5.15,0.16,6.44,1.85,7.02,5.35l0.87,5.04l-2.68-1.68l4.89,0.53
			v1.75c-1.55,0.36-2.08,0.47-3.57,0.47c-2.78,0-4.41-0.8-4.73-3.34l-0.61-3.79c-0.32-2.2-1.13-3.19-3.08-3.19h-3.78V83.81z"/>
		<path class="st11" d="M118.45,75.81v-1.75h5.25v2.24h-0.51L118.45,75.81z M123.7,93.25v2.24h-5.25v-1.75l4.74-0.49H123.7z
			 M120.96,84.17c0-3.36,0-6.75-0.1-10.11h5.67c-0.1,3.29-0.1,6.69-0.1,10.11v1.08c0,3.49,0,6.89,0.1,10.25h-5.67
			c0.1-3.29,0.1-6.69,0.1-10.11V84.17z M131.66,74.06l2.36,1.84H123.7v-1.84h11.41l0.23,5.62h-2.72L131.66,74.06z M130.89,85.39
			h-7.18v-1.92h7.18V85.39z M136,89.87l-0.23,5.62H123.7v-1.82h10.97l-2.36,1.82l0.96-5.62H136z M129.89,84.03l0.49-3.13h1.89v7.03
			h-1.89l-0.49-3.29V84.03z"/>
		<path class="st11" d="M148.55,91.05c0-1.72-0.85-2.5-2.82-3.38l-1.38-0.63c-3.84-1.75-6.06-3.69-6.06-7.3
			c0-3.92,3.17-6.29,8.11-6.29c2.33,0,4.57,0.61,6.17,1.66l-0.27,4.57h-2.99l-0.8-4.93l2.63,0.94v1.63
			c-1.74-1.26-2.97-1.93-4.65-1.93c-1.86,0-3.36,1.18-3.36,2.97c0,1.73,1.03,2.63,2.97,3.49l1.53,0.7c4.17,1.88,5.88,3.67,5.88,6.98
			c0,3.85-2.95,6.58-8.52,6.58c-2.45,0-5.2-0.55-7.08-1.71l0.2-4.85h3.04l0.85,5.28l-2.52-0.8v-1.57c2.07,1.12,3.42,1.7,5.52,1.7
			C147.29,94.16,148.55,92.82,148.55,91.05z"/>
		<path class="st11" d="M155.76,75.9l2.36-1.84l-0.86,6.07h-2.72l0.12-6.07h19.15l0.1,6.07h-2.7l-0.86-6.07l2.34,1.84H155.76z
			 M164.91,93.25l4.92,0.49v1.75h-11.18v-1.75l4.83-0.49H164.91z M161.5,84.17c0-3.36,0-6.75-0.1-10.11h5.67
			c-0.1,3.29-0.1,6.69-0.1,10.11v1.18c0,3.38,0,6.78,0.1,10.14h-5.67c0.1-3.29,0.1-6.69,0.1-10.11V84.17z"/>
		<path class="st11" d="M172.35,93.74l3.36-0.49h0.58l3.09,0.49v1.75h-7.03V93.74z M181.63,74.01H185l7.34,21.48h-5.58l-5.57-17.52
			l1.22-1.65l-6.23,19.17h-1.93L181.63,74.01z M178.12,87.36h8.81l0.73,1.9h-10.09L178.12,87.36z M183.6,93.81l3.69-0.49h2.18
			l4.19,0.49v1.68H183.6V93.81z"/>
		<path class="st11" d="M193.22,75.81v-1.75h10.64v1.75l-4.85,0.49h-0.94L193.22,75.81z M205.77,93.13c2.93,0,4.68-1.96,4.68-6.88
			v-12.2h2.12v12.2c0,6.92-3.21,9.84-8.6,9.84c-4.82,0-8.33-2.38-8.33-8.71v-3.55c0-3.22,0-6.52-0.1-9.78h5.67
			c-0.1,3.2-0.1,6.5-0.1,9.78v2.51C201.12,91.34,202.67,93.13,205.77,93.13z M210.96,76.11l-3.47-0.3v-1.75h7.78v1.75l-3.35,0.3
			H210.96z"/>
		<path class="st11" d="M216.67,75.81v-1.75h5.25v2.24h-0.51L216.67,75.81z M222.43,93.25l4.74,0.49v1.75h-10.5v-1.75l4.73-0.49
			H222.43z M219.18,84.17c0-3.36,0-6.75-0.1-10.11h5.58c-0.1,3.32-0.1,6.66-0.1,10.2v1c0,3.47,0,6.87,0.1,10.23h-5.58
			c0.1-3.29,0.1-6.69,0.1-10.11V84.17z M221.96,83.81h3.84c3.24,0,4.23-1.89,4.23-3.99c0-2.62-1.42-3.89-4.08-3.89h-4.04v-1.88h5.36
			c5.13,0,7.97,2.03,7.97,5.41c0,2.49-1.86,5.05-7.64,5.36l0.03-0.33c5.15,0.16,6.44,1.85,7.02,5.35l0.87,5.04l-2.68-1.68l4.89,0.53
			v1.75c-1.55,0.36-2.08,0.47-3.57,0.47c-2.78,0-4.41-0.8-4.73-3.34l-0.61-3.79c-0.32-2.2-1.13-3.19-3.08-3.19h-3.78V83.81z"/>
		<path class="st11" d="M238.49,93.74l3.36-0.49h0.58l3.09,0.49v1.75h-7.03V93.74z M247.77,74.01h3.37l7.34,21.48h-5.58l-5.57-17.52
			l1.22-1.65l-6.23,19.17h-1.93L247.77,74.01z M244.25,87.36h8.81l0.73,1.9h-10.09L244.25,87.36z M249.74,93.81l3.69-0.49h2.18
			l4.19,0.49v1.68h-10.06V93.81z"/>
		<path class="st11" d="M261.06,93.74l3.47-0.49h0.94l4.2,0.49v1.75h-8.61V93.74z M262.77,75.21l1.88,0.92l-3.54-0.3v-1.78h7.37
			l11.7,16.06v5.44h-2.76L262.77,75.21z M263.84,74.06l2.1,1.78v19.66h-2.1V74.06z M274.34,74.06h8.61v1.75l-3.31,0.49h-0.91
			l-4.39-0.49V74.06z M278.08,74.06h2.1v21.5l-2.1-2.1V74.06z"/>
		<path class="st11" d="M285.76,75.9l2.36-1.84l-0.86,6.07h-2.72l0.12-6.07h19.15l0.1,6.07h-2.7l-0.86-6.07l2.34,1.84H285.76z
			 M294.91,93.25l4.92,0.49v1.75h-11.18v-1.75l4.83-0.49H294.91z M291.49,84.17c0-3.36,0-6.75-0.1-10.11h5.67
			c-0.1,3.29-0.1,6.69-0.1,10.11v1.18c0,3.38,0,6.78,0.1,10.14h-5.67c0.1-3.29,0.1-6.69,0.1-10.11V84.17z"/>
		<path class="st11" d="M316.1,91.05c0-1.72-0.85-2.5-2.82-3.38l-1.38-0.63c-3.84-1.75-6.06-3.69-6.06-7.3
			c0-3.92,3.17-6.29,8.11-6.29c2.33,0,4.57,0.61,6.17,1.66l-0.27,4.57h-2.99l-0.8-4.93l2.63,0.94v1.63
			c-1.74-1.26-2.97-1.93-4.65-1.93c-1.86,0-3.36,1.18-3.36,2.97c0,1.73,1.03,2.63,2.97,3.49l1.53,0.7c4.17,1.88,5.88,3.67,5.88,6.98
			c0,3.85-2.95,6.58-8.52,6.58c-2.45,0-5.2-0.55-7.08-1.71l0.2-4.85h3.04l0.85,5.28l-2.52-0.8v-1.57c2.07,1.12,3.42,1.7,5.52,1.7
			C314.84,94.16,316.1,92.82,316.1,91.05z"/>
	</g>
</g>
</svg>
