<?xml version="1.0" encoding="utf-8"?>
<!-- Generator: Adobe Illustrator 27.2.0, SVG Export Plug-In . SVG Version: 6.00 Build 0)  -->
<svg version="1.1" id="Layer_1" xmlns="http://www.w3.org/2000/svg" xmlns:xlink="http://www.w3.org/1999/xlink" x="0px" y="0px"
	 viewBox="0 0 107 106" style="enable-background:new 0 0 107 106;" xml:space="preserve">
<style type="text/css">
	.st0{fill-rule:evenodd;clip-rule:evenodd;fill:#FEBE10;}
	.st1{fill-rule:evenodd;clip-rule:evenodd;fill:#0060A9;}
	.st2{fill-rule:evenodd;clip-rule:evenodd;fill:#ED1C2E;}
	.st3{fill-rule:evenodd;clip-rule:evenodd;fill:#FFFFFF;}
	.st4{fill:#C2302D;}
	.st5{fill:#F5AE26;}
	.st6{fill:#FFFFFF;}
	.st7{fill-rule:evenodd;clip-rule:evenodd;fill:#F0B638;}
	.st8{fill:#F0B638;}
	.st9{fill:none;stroke:#F0B638;stroke-width:0.5;stroke-miterlimit:10;}
	.st10{fill:#FFFFFF;stroke:#F0B638;stroke-width:0.5;stroke-miterlimit:10;}
	.st11{fill:#EFC13A;}
</style>
<g>
	<path class="st0" d="M80.12,15.79c0.24-0.59-0.25-1.18-0.25-1.18s-3.85-6.54-17.47-8c-7.29-0.78-17.22,0.7-24.17,4.45
		c-12.6,6.79-14.49,17.98-14.49,17.98c-0.07,0.27-0.19,1.11,0.09,1.47c0.29,0.36,0.71,0.36,1.23,0.18c4.45-1.5,17.71-5.9,26.08-8.12
		c11.91-3.16,21.69-5.08,27.97-6.15C79.55,16.35,79.95,16.2,80.12,15.79L80.12,15.79z M34.24,82.19c-0.29,0.67,0.37,1.33,0.37,1.33
		c2.82,3.54,15.36,8.04,28.96,4.74c20.78-5.03,25.17-19.72,25.67-21.8c0.1-0.42,0.18-1.1-0.21-1.51c-0.33-0.34-0.8-0.35-1.45-0.19
		c-14.43,3.39-38.45,10.73-52.3,16.65C34.7,81.66,34.43,81.76,34.24,82.19L34.24,82.19z"/>
	<path class="st1" d="M93.72,68.52C86.59,84.53,72.92,95.67,55,95.92c-13.05,0.18-24.57-4.29-32.88-12.08l-5.03,2.15l0.01-7.79
		c-5.48-7.39-8.66-16.74-8.66-27.37c0-27.21,20.84-48.65,49.9-48.65c4.75,0,9.03,0.74,12.27,1.47c-4.98-1.6-9.93-2.46-15.44-2.46
		c-31.19,0-52.18,25.29-52.18,51.37c0,28.43,22.3,52.24,51.56,52.24c27.95,0,43.04-19.71,47.86-31.56L93.72,68.52L93.72,68.52z"/>
	<path class="st2" d="M86.48,62.9c4.1-0.47,6.94-2.12,8.5-3.65c1.42-1.4,1.75-3.31,1.75-4.74c0.06-2.09,0-8.71,0-8.71l-10.85,2.35
		c0,0,0,0.82-0.01,2.54c0.02,1.67,0.83,2.59,2.59,2.27c0.55-0.09,1.4-0.36,1.4-0.36l0.01,2.07c-0.01-0.06,0.16,1.16-2.58,1.7
		c-3.58,0.56-5.21-1.64-5.25-5.53c0.07-4.18,2.43-6.58,5.29-7.24c3.22-0.74,5.04,0.03,6.11,0.19c3.59,0.54,4.61-4.85,1.34-6.12
		c-2.42-0.97-5.56-1.15-8.54-0.55c-3.99,0.8-11.85,4.14-11.87,15C74.41,60.74,80.77,63.55,86.48,62.9L86.48,62.9z M80.7,36.69
		l0.01-16.73c0,0,4.89-0.86,6.15-1.03c3.5-0.45,5.85,1.5,5.8,4.26c-0.02,2.42-1.54,3.89-2.84,4.76c0,0,2.38,2.68,3.02,3.39
		c0.86,0.95,0.82,2.59-0.45,3.39c-1.25,0.79-2.48,0.37-3.2-0.42l-3.93-4.61c0,0,0.02,2.83,0.01,4.07c-0.01,1.23-0.72,2.13-2,2.4
		L80.7,36.69L80.7,36.69z M85.25,27.14c0,0,2.72-1.03,2.68-3.21c-0.03-1.84-1.84-1.5-2.69-1.31L85.25,27.14L85.25,27.14z
		 M78.01,37.2c1.02-0.22,1.66-0.94,1.66-2.19c0-1.13,0.01-1.99,0.01-1.99l-5.56,1.22l0.01-3.27c0,0,2.73-0.58,3.48-0.74
		c0.95-0.21,1.45-0.73,1.45-1.81c0-1.02-0.01-1.89-0.01-1.89l-4.93,1.05l0-2.59c0,0,2.56-0.53,3.94-0.83
		c1.08-0.22,1.43-0.96,1.43-1.98c0-0.66,0.01-1.97,0.01-1.97c-2.46,0.43-7.13,1.37-10.05,2.03l-0.04,16.94
		C69.42,39.17,74.96,37.86,78.01,37.2L78.01,37.2z M51.2,72.15c0,0,3.33-1.15,3.62-1.25c2.68-0.92,3.65-2.51,3.64-5.27
		c-0.03-2.99-0.04-8.82-0.04-8.82l7.74,8.92c1.26,1.3,2.84,1.41,4.28,0.99c1.49-0.44,2.74-1.8,2.77-3.72
		c0.01-6.44-0.01-22.17-0.01-22.17s-2,0.42-3.66,0.89c-1.91,0.54-3.38,1.76-3.38,4.98c0,1.14,0,7.67,0,7.67s-4.36-5.46-7.21-8.31
		c-1.52-1.52-4.05-0.61-4.05-0.61l-3.72,1.12L51.2,72.15L51.2,72.15z M48.85,47.14c0,0-2.33,0.68-4.23,1.37
		c-2.47,0.89-3.89,2.32-3.89,6.05c0,3.42-0.01,21.26-0.01,21.26s2.16-0.74,4.17-1.49c2.86-1.08,3.94-2.55,3.94-5.56
		C48.84,66.18,48.85,47.14,48.85,47.14L48.85,47.14z M37.28,52.2c-2.14-0.97-3.98,0.11-4.76,1.32L25.94,64.7l-0.01-9.02l-7.76,3.22
		l-0.02,25.51l5.46-2.29c0,0,1.07-0.31,1.72-1.32c0.6-0.93,0.57-2.51,0.57-2.51l0.01-8.09l6.11,6.48c1.34,1.39,3.8,2.1,5.98,0.35
		c1.97-1.59,1.66-4.29,0.57-5.51L33,65.92c0,0,4.9-7.72,5.7-9.01C39.76,55.2,39.22,53.08,37.28,52.2L37.28,52.2z M26.88,48.11
		c0.06,3.57-2.51,5.47-5.86,6.86l-6.86,2.91l-0.02-18.58c0,0,4.32-1.76,5.73-2.27c4.01-1.46,6.36,0.3,6.36,2.97
		c0,1.79-0.76,3.3-2.42,4.64C25.45,44.91,26.85,46.25,26.88,48.11L26.88,48.11z M18.88,44.67c0.34-0.13,0.58-0.24,0.87-0.38
		c1.02-0.5,1.75-1.42,1.76-2.62c0.01-1.36-1.11-1.71-2.63-0.93L18.88,44.67l3.04,4.09c-0.02-1.41-1.11-2.17-3-1.22l-0.01,4.52
		c0,0,0.61-0.27,1.06-0.48c1.1-0.51,1.97-1.43,1.95-2.82L18.88,44.67L18.88,44.67z M39.9,32.43c0-1.56-1.08-1.98-2.38-1.61
		c-1.05,0.3-2.28,0.78-2.28,0.78l-0.01,11.55c-0.01,1.15-0.19,2.59-1.61,2.95c-1.09,0.27-1.6-0.45-1.6-1.6L32,35.04
		c0-1.58-1.09-2.04-2.39-1.62c-1.46,0.49-2.34,0.84-2.34,0.84s0.01,8.18,0,11.45c-0.02,3.83,2.63,5.75,6.66,4.56
		c3.55-1.05,5.93-3.04,5.97-8.15L39.9,32.43L39.9,32.43z M45.87,39.12c0,0-0.01,3.25-0.01,4.56c-0.01,1.23-0.85,2.11-1.91,2.52
		c0,0.04,0-0.04,0,0c-0.89,0.3-2.77,0.95-2.77,0.95l0.01-17.44c0,0,3.89-1.35,6.18-1.89c3.56-0.83,6.09,0.79,6.04,3.66
		c-0.02,2.73-1.55,4.4-2.92,5.53l3.01,2.89c0.93,0.9,0.99,2.52-0.05,3.5c-0.62,0.58-2.27,1.18-3.56-0.13L45.87,39.12L45.87,39.12z
		 M45.86,36.51c0.01,0,2.75-1.42,2.72-3.68c-0.03-1.92-1.8-1.5-2.72-1.16L45.86,36.51L45.86,36.51z M68.32,29.67l-6.93,1.58
		c0,0-0.01,0.73-0.01,1.93c0.01,0.89,0.64,1.48,1.54,1.29c0.57-0.12,1.03-0.22,1.03-0.22l0.01,1.92c0.01,0.76-1.14,1.26-2.32,1.23
		c-1.66-0.04-2.58-1.33-2.61-3.79c0.05-3.23,1.57-5.12,3.64-5.66c1.03-0.26,1.98-0.13,2.7-0.04c1.79,0.29,2.81-0.57,2.85-2.05
		c0.04-1.58-1.37-2.56-4.37-2.45c-6.52,0.23-9.86,4.91-9.86,10.5c0,5.73,3.74,8.26,8.31,7.43c2.58-0.52,3.86-1.36,4.75-2.14
		c0.89-0.78,1.25-1.95,1.26-2.94L68.32,29.67L68.32,29.67z"/>
	<path class="st3" d="M41.03,10.94c-7.64,3.38-12.8,11.4-13.08,14.8c-0.11,1.35,1.68,1.55,1.85,0.11
		C31.41,19.65,36.35,13.8,41.03,10.94L41.03,10.94z"/>
	<path class="st3" d="M66.35,16.7c4.12-1.01,6.38-1.16,6.42-3c0.07-3.08-8.72-6.65-16.77-6.01c8.2,0.55,13.13,3.71,13.15,5.91
		C69.17,14.99,67.96,16.21,66.35,16.7L66.35,16.7z"/>
	<path class="st3" d="M68.9,84.82c6.18-2.43,12.12-7.07,15.41-14.03c0.95-2.01-1.79-3.04-2.57-0.68
		C79.82,75.06,75.87,80.87,68.9,84.82L68.9,84.82z"/>
	<path class="st2" d="M93.48,62.74v0.72h1.7v3.5h1.15v-3.5h1.63v-0.72H93.48L93.48,62.74z M101.87,66.97l1-3.42v3.42h1.15v-4.22
		h-1.68l-1.04,3.24l-1.04-3.24h-1.68v4.22h1.15v-3.42l1,3.42H101.87L101.87,66.97z"/>
</g>
</svg>
