<?xml version="1.0" encoding="utf-8"?>
<!-- Generator: Adobe Illustrator 27.2.0, SVG Export Plug-In . SVG Version: 6.00 Build 0)  -->
<svg version="1.1" id="Layer_1" xmlns="http://www.w3.org/2000/svg" xmlns:xlink="http://www.w3.org/1999/xlink" x="0px" y="0px"
	 viewBox="0 0 143 106" style="enable-background:new 0 0 143 106;" xml:space="preserve">
<style type="text/css">
	.st0{fill-rule:evenodd;clip-rule:evenodd;fill:#FEBE10;}
	.st1{fill-rule:evenodd;clip-rule:evenodd;fill:#0060A9;}
	.st2{fill-rule:evenodd;clip-rule:evenodd;fill:#ED1C2E;}
	.st3{fill-rule:evenodd;clip-rule:evenodd;fill:#FFFFFF;}
	.st4{fill:#C2302D;}
	.st5{fill:#F5AE26;}
	.st6{fill:#FFFFFF;}
	.st7{fill-rule:evenodd;clip-rule:evenodd;fill:#F0B638;}
	.st8{fill:#F0B638;}
	.st9{fill:none;stroke:#F0B638;stroke-width:0.5;stroke-miterlimit:10;}
	.st10{fill:#FFFFFF;stroke:#F0B638;stroke-width:0.5;stroke-miterlimit:10;}
	.st11{fill:#EFC13A;}
</style>
<g>
	<polygon class="st4" points="11.47,2.41 10.86,2.44 10.25,2.51 9.68,2.65 9.12,2.83 8.57,3.05 8.07,3.33 7.58,3.64 7.12,3.99 
		6.7,4.38 6.31,4.8 5.96,5.26 5.65,5.74 5.37,6.26 5.14,6.8 4.96,7.36 4.84,7.94 4.75,8.54 4.72,9.16 4.72,9.16 4.72,9.17 4.72,9.2 
		4.72,9.25 4.72,9.34 4.72,9.45 4.72,9.58 4.72,9.72 4.72,9.9 4.72,10.08 4.72,10.3 4.72,10.53 4.72,10.79 4.72,11.06 4.72,11.35 
		4.72,11.67 4.72,12.01 4.72,12.36 4.72,12.72 4.72,13.12 4.72,13.52 4.72,13.94 4.72,14.39 4.72,14.85 4.72,15.33 4.72,15.82 
		4.72,16.32 4.72,16.84 4.72,17.39 4.72,17.93 4.72,18.51 4.72,19.08 4.72,19.68 4.72,20.28 4.72,20.91 4.72,21.54 4.72,22.2 
		4.72,22.86 4.72,23.53 4.72,24.22 4.72,24.9 4.72,25.62 4.72,26.33 4.72,27.06 4.72,27.8 4.72,28.54 4.72,29.3 4.72,30.07 
		4.72,30.84 4.72,31.62 4.72,32.42 4.72,33.22 4.72,34.03 4.72,34.84 4.72,35.65 4.72,36.48 4.72,37.32 4.72,38.16 4.72,39 
		4.72,39.85 4.72,40.71 4.72,41.56 4.72,42.43 4.72,43.3 4.72,44.17 4.72,45.05 4.72,45.92 4.72,46.8 4.72,47.68 4.72,48.56 
		4.72,49.46 4.72,50.34 4.72,51.24 4.72,52.12 4.72,53 4.72,53.88 4.72,54.76 4.72,55.66 4.72,56.54 4.72,57.44 4.72,58.32 
		4.72,59.2 4.72,60.08 4.72,60.95 4.72,61.83 4.72,62.7 4.72,63.57 4.72,64.44 4.72,65.29 4.72,66.15 4.72,67 4.72,67.84 
		4.72,68.68 4.72,69.52 4.72,70.34 4.72,71.16 4.72,71.97 4.72,72.78 4.72,73.58 4.72,74.38 4.72,75.16 4.72,75.93 4.72,76.7 
		4.72,77.46 4.72,78.2 4.72,78.94 4.72,79.67 4.72,80.38 4.72,81.1 4.72,81.78 4.72,82.47 4.72,83.14 4.72,83.81 4.72,84.46 
		4.72,85.09 4.72,85.72 4.72,86.32 4.72,86.92 4.72,87.49 4.72,88.07 4.72,88.61 4.72,89.16 4.72,89.68 4.72,90.18 4.72,90.67 
		4.72,91.15 4.72,91.61 4.72,92.06 4.72,92.48 4.72,92.88 4.72,93.28 4.72,93.64 4.72,93.99 4.72,94.33 4.72,94.65 4.72,94.94 
		4.72,95.21 4.72,95.47 4.72,95.7 4.72,95.92 4.72,96.1 4.72,96.28 4.72,96.43 4.72,96.55 4.72,96.66 4.72,96.75 4.72,96.8 
		4.72,96.83 4.72,96.84 4.72,96.84 4.75,97.46 4.84,98.06 4.96,98.64 5.14,99.2 5.37,99.74 5.65,100.26 5.96,100.74 6.31,101.2 
		6.7,101.62 7.12,102.01 7.58,102.36 8.07,102.67 8.57,102.95 9.12,103.17 9.68,103.35 10.25,103.49 10.86,103.56 11.47,103.59 
		11.47,103.59 11.49,103.59 11.5,103.59 11.56,103.59 11.61,103.59 11.68,103.59 11.78,103.59 11.89,103.59 12.02,103.59 
		12.16,103.59 12.31,103.59 12.49,103.59 12.68,103.59 12.89,103.59 13.11,103.59 13.35,103.59 13.59,103.59 13.85,103.59 
		14.13,103.59 14.43,103.59 14.73,103.59 15.06,103.59 15.39,103.59 15.74,103.59 16.11,103.59 16.48,103.59 16.88,103.59 
		17.28,103.59 17.7,103.59 18.12,103.59 18.57,103.59 19.02,103.59 19.48,103.59 19.96,103.59 20.45,103.59 20.95,103.59 
		21.47,103.59 21.99,103.59 22.52,103.59 23.06,103.59 23.62,103.59 24.18,103.59 24.77,103.59 25.35,103.59 25.95,103.59 
		26.56,103.59 27.18,103.59 27.8,103.59 28.44,103.59 29.08,103.59 29.74,103.59 30.4,103.59 31.07,103.59 31.76,103.59 
		32.44,103.59 33.14,103.59 33.84,103.59 34.56,103.59 35.27,103.59 36,103.59 36.74,103.59 37.48,103.59 38.22,103.59 
		38.99,103.59 39.75,103.59 40.52,103.59 41.29,103.59 42.07,103.59 42.86,103.59 43.66,103.59 44.45,103.59 45.27,103.59 
		46.08,103.59 46.89,103.59 47.7,103.59 48.53,103.59 49.35,103.59 50.19,103.59 51.03,103.59 51.87,103.59 52.71,103.59 
		53.57,103.59 54.42,103.59 55.27,103.59 56.13,103.59 57,103.59 57.86,103.59 58.73,103.59 59.6,103.59 60.47,103.59 61.35,103.59 
		62.22,103.59 63.1,103.59 63.98,103.59 64.86,103.59 65.75,103.59 66.63,103.59 67.51,103.59 68.41,103.59 69.29,103.59 
		70.17,103.59 71.07,103.59 71.93,103.59 72.83,103.59 73.71,103.59 74.59,103.59 75.48,103.59 76.37,103.59 77.25,103.59 
		78.14,103.59 79.02,103.59 79.9,103.59 80.78,103.59 81.65,103.59 82.53,103.59 83.4,103.59 84.27,103.59 85.14,103.59 86,103.59 
		86.87,103.59 87.72,103.59 88.58,103.59 89.43,103.59 90.29,103.59 91.13,103.59 91.97,103.59 92.81,103.59 93.65,103.59 
		94.47,103.59 95.3,103.59 96.11,103.59 96.92,103.59 97.73,103.59 98.55,103.59 99.34,103.59 100.14,103.59 100.93,103.59 
		101.71,103.59 102.48,103.59 103.25,103.59 104.01,103.59 104.76,103.59 105.52,103.59 106.26,103.59 107,103.59 107.73,103.59 
		108.44,103.59 109.16,103.59 109.86,103.59 110.56,103.59 111.24,103.59 111.93,103.59 112.6,103.59 113.26,103.59 113.92,103.59 
		114.56,103.59 115.2,103.59 115.82,103.59 116.44,103.59 117.05,103.59 117.64,103.59 118.23,103.59 118.82,103.59 119.38,103.59 
		119.94,103.59 120.48,103.59 121.01,103.59 121.53,103.59 122.05,103.59 122.55,103.59 123.04,103.59 123.52,103.59 123.98,103.59 
		124.43,103.59 124.88,103.59 125.3,103.59 125.72,103.59 126.12,103.59 126.52,103.59 126.89,103.59 127.26,103.59 127.61,103.59 
		127.94,103.59 128.27,103.59 128.57,103.59 128.87,103.59 129.15,103.59 129.41,103.59 129.65,103.59 129.89,103.59 130.11,103.59 
		130.32,103.59 130.51,103.59 130.69,103.59 130.84,103.59 130.98,103.59 131.11,103.59 131.22,103.59 131.32,103.59 131.39,103.59 
		131.44,103.59 131.49,103.59 131.51,103.59 131.53,103.59 131.53,103.59 132.14,103.56 132.75,103.49 133.32,103.35 133.88,103.17 
		134.43,102.95 134.93,102.67 135.42,102.36 135.87,102.01 136.3,101.62 136.69,101.2 137.04,100.74 137.35,100.26 137.63,99.74 
		137.86,99.2 138.04,98.64 138.16,98.06 138.25,97.46 138.28,96.84 138.28,96.84 138.28,96.83 138.28,96.8 138.28,96.75 
		138.28,96.66 138.28,96.55 138.28,96.43 138.28,96.28 138.28,96.1 138.28,95.92 138.28,95.7 138.28,95.47 138.28,95.21 
		138.28,94.94 138.28,94.65 138.28,94.33 138.28,93.99 138.28,93.64 138.28,93.28 138.28,92.88 138.28,92.48 138.28,92.06 
		138.28,91.61 138.28,91.15 138.28,90.67 138.28,90.18 138.28,89.68 138.28,89.16 138.28,88.61 138.28,88.07 138.28,87.49 
		138.28,86.92 138.28,86.32 138.28,85.72 138.28,85.09 138.28,84.46 138.28,83.81 138.28,83.14 138.28,82.47 138.28,81.78 
		138.28,81.1 138.28,80.38 138.28,79.67 138.28,78.94 138.28,78.2 138.28,77.46 138.28,76.7 138.28,75.93 138.28,75.16 
		138.28,74.38 138.28,73.58 138.28,72.78 138.28,71.97 138.28,71.16 138.28,70.34 138.28,69.52 138.28,68.68 138.28,67.84 
		138.28,67 138.28,66.15 138.28,65.29 138.28,64.44 138.28,63.57 138.28,62.7 138.28,61.83 138.28,60.95 138.28,60.08 138.28,59.2 
		138.28,58.32 138.28,57.44 138.28,56.54 138.28,55.66 138.28,54.76 138.28,53.88 138.28,53 138.28,52.12 138.28,51.24 
		138.28,50.34 138.28,49.46 138.28,48.56 138.28,47.68 138.28,46.8 138.28,45.92 138.28,45.05 138.28,44.17 138.28,43.3 
		138.28,42.43 138.28,41.56 138.28,40.71 138.28,39.85 138.28,39 138.28,38.16 138.28,37.32 138.28,36.48 138.28,35.65 
		138.28,34.84 138.28,34.03 138.28,33.22 138.28,32.42 138.28,31.62 138.28,30.84 138.28,30.07 138.28,29.3 138.28,28.54 
		138.28,27.8 138.28,27.06 138.28,26.33 138.28,25.62 138.28,24.9 138.28,24.22 138.28,23.53 138.28,22.86 138.28,22.2 
		138.28,21.54 138.28,20.91 138.28,20.28 138.28,19.68 138.28,19.08 138.28,18.51 138.28,17.93 138.28,17.39 138.28,16.84 
		138.28,16.32 138.28,15.82 138.28,15.33 138.28,14.85 138.28,14.39 138.28,13.94 138.28,13.52 138.28,13.12 138.28,12.72 
		138.28,12.36 138.28,12.01 138.28,11.67 138.28,11.35 138.28,11.06 138.28,10.79 138.28,10.53 138.28,10.3 138.28,10.08 
		138.28,9.9 138.28,9.72 138.28,9.58 138.28,9.45 138.28,9.34 138.28,9.25 138.28,9.2 138.28,9.17 138.28,9.16 138.28,9.16 
		138.25,8.54 138.16,7.94 138.04,7.36 137.86,6.8 137.63,6.26 137.35,5.74 137.04,5.26 136.69,4.8 136.3,4.38 135.87,3.99 
		135.42,3.64 134.93,3.33 134.43,3.05 133.88,2.83 133.32,2.65 132.75,2.51 132.14,2.44 131.53,2.41 131.53,2.41 131.51,2.41 
		131.49,2.41 131.44,2.41 131.39,2.41 131.32,2.41 131.22,2.41 131.11,2.41 130.98,2.41 130.84,2.41 130.69,2.41 130.51,2.41 
		130.32,2.41 130.11,2.41 129.89,2.41 129.65,2.41 129.41,2.41 129.15,2.41 128.87,2.41 128.57,2.41 128.27,2.41 127.94,2.41 
		127.61,2.41 127.26,2.41 126.89,2.41 126.52,2.41 126.12,2.41 125.72,2.41 125.3,2.41 124.88,2.41 124.43,2.41 123.98,2.41 
		123.52,2.41 123.04,2.41 122.55,2.41 122.05,2.41 121.53,2.41 121.01,2.41 120.48,2.41 119.94,2.41 119.38,2.41 118.82,2.41 
		118.23,2.41 117.64,2.41 117.05,2.41 116.44,2.41 115.82,2.41 115.2,2.41 114.56,2.41 113.92,2.41 113.26,2.41 112.6,2.41 
		111.93,2.41 111.24,2.41 110.56,2.41 109.86,2.41 109.16,2.41 108.44,2.41 107.73,2.41 107,2.41 106.26,2.41 105.52,2.41 
		104.76,2.41 104.01,2.41 103.25,2.41 102.48,2.41 101.71,2.41 100.93,2.41 100.14,2.41 99.34,2.41 98.55,2.41 97.73,2.41 
		96.92,2.41 96.11,2.41 95.3,2.41 94.47,2.41 93.65,2.41 92.81,2.41 91.97,2.41 91.13,2.41 90.29,2.41 89.43,2.41 88.58,2.41 
		87.72,2.41 86.87,2.41 86,2.41 85.14,2.41 84.27,2.41 83.4,2.41 82.53,2.41 81.65,2.41 80.78,2.41 79.9,2.41 79.02,2.41 
		78.14,2.41 77.25,2.41 76.37,2.41 75.48,2.41 74.59,2.41 73.71,2.41 72.83,2.41 71.93,2.41 71.07,2.41 70.17,2.41 69.29,2.41 
		68.41,2.41 67.51,2.41 66.63,2.41 65.75,2.41 64.86,2.41 63.98,2.41 63.1,2.41 62.22,2.41 61.35,2.41 60.47,2.41 59.6,2.41 
		58.73,2.41 57.86,2.41 57,2.41 56.13,2.41 55.27,2.41 54.42,2.41 53.57,2.41 52.71,2.41 51.87,2.41 51.03,2.41 50.19,2.41 
		49.35,2.41 48.53,2.41 47.7,2.41 46.89,2.41 46.08,2.41 45.27,2.41 44.45,2.41 43.66,2.41 42.86,2.41 42.07,2.41 41.29,2.41 
		40.52,2.41 39.75,2.41 38.99,2.41 38.22,2.41 37.48,2.41 36.74,2.41 36,2.41 35.27,2.41 34.56,2.41 33.84,2.41 33.14,2.41 
		32.44,2.41 31.76,2.41 31.07,2.41 30.4,2.41 29.74,2.41 29.08,2.41 28.44,2.41 27.8,2.41 27.18,2.41 26.56,2.41 25.95,2.41 
		25.35,2.41 24.77,2.41 24.18,2.41 23.62,2.41 23.06,2.41 22.52,2.41 21.99,2.41 21.47,2.41 20.95,2.41 20.45,2.41 19.96,2.41 
		19.48,2.41 19.02,2.41 18.57,2.41 18.12,2.41 17.7,2.41 17.28,2.41 16.88,2.41 16.48,2.41 16.11,2.41 15.74,2.41 15.39,2.41 
		15.06,2.41 14.73,2.41 14.43,2.41 14.13,2.41 13.85,2.41 13.59,2.41 13.35,2.41 13.11,2.41 12.89,2.41 12.68,2.41 12.49,2.41 
		12.31,2.41 12.16,2.41 12.02,2.41 11.89,2.41 11.78,2.41 11.68,2.41 11.61,2.41 11.56,2.41 11.5,2.41 11.49,2.41 11.47,2.41 
		11.47,2.41 	"/>
	<polygon class="st5" points="61.2,48.07 61.27,47.58 61.34,47.09 61.41,46.59 61.49,46.08 61.57,45.57 61.66,45.03 61.74,44.5 
		61.84,43.97 61.94,43.42 62.04,42.86 62.13,42.32 62.25,41.76 62.34,41.18 62.47,40.61 62.58,40.04 62.71,39.46 62.83,38.87 
		62.96,38.29 63.09,37.7 63.23,37.11 63.37,36.51 63.51,35.92 63.66,35.32 63.81,34.73 63.97,34.13 64.12,33.53 64.29,32.93 
		64.46,32.32 64.63,31.74 64.81,31.13 64.98,30.55 65.17,29.94 65.35,29.36 65.55,28.77 65.73,28.18 65.94,27.61 66.14,27.02 
		66.35,26.44 66.56,25.87 66.77,25.31 66.99,24.75 67.22,24.19 67.44,23.64 67.68,23.1 67.92,22.57 68.15,22.03 68.39,21.5 
		68.64,21 68.9,20.48 69.15,19.99 69.41,19.49 69.68,19.01 69.95,18.53 70.21,18.07 70.49,17.62 70.77,17.18 71.07,16.74 
		71.35,16.32 71.63,15.92 71.93,15.51 72.23,15.13 72.54,14.75 72.86,14.39 73.17,14.04 73.49,13.7 73.81,13.38 74.15,13.09 
		74.48,12.79 74.82,12.51 75.15,12.25 75.5,12.01 75.85,11.77 76.22,11.56 76.57,11.37 76.93,11.18 77.31,11.03 77.67,10.88 
		78.05,10.75 78.44,10.64 78.82,10.55 79.21,10.48 79.62,10.43 80.01,10.4 80.42,10.4 80.42,10.4 80.67,10.4 80.91,10.41 
		81.16,10.44 81.4,10.47 81.64,10.51 81.89,10.57 82.13,10.64 82.38,10.71 82.63,10.79 82.87,10.88 83.12,10.98 83.36,11.09 
		83.61,11.2 83.86,11.32 84.1,11.46 84.35,11.6 84.6,11.76 84.85,11.93 85.09,12.09 85.35,12.28 85.6,12.46 85.84,12.65 
		86.09,12.86 86.34,13.07 86.58,13.3 86.83,13.52 87.08,13.76 87.33,14.01 87.57,14.26 87.82,14.52 88.07,14.8 88.31,15.06 
		88.56,15.36 88.8,15.64 89.05,15.94 89.31,16.25 89.54,16.56 89.8,16.88 90.03,17.2 90.27,17.54 90.52,17.89 90.76,18.24 
		91.01,18.59 91.25,18.95 91.49,19.33 91.73,19.71 91.97,20.09 92.22,20.48 92.46,20.87 92.69,21.28 92.93,21.68 93.17,22.1 
		93.41,22.52 93.63,22.94 93.87,23.39 94.11,23.83 94.35,24.27 94.57,24.72 94.81,25.18 95.03,25.65 95.27,26.11 95.49,26.58 
		95.72,27.07 95.94,27.55 96.17,28.04 96.39,28.54 96.61,29.05 96.84,29.55 97.06,30.06 97.29,30.57 97.51,31.11 97.72,31.62 
		97.94,32.16 98.15,32.69 98.36,33.23 98.57,33.78 98.8,34.33 99.01,34.89 99.2,35.45 99.41,36.01 99.62,36.58 99.83,37.15 
		100.03,37.73 100.24,38.3 100.44,38.89 100.63,39.48 100.83,40.06 101.02,40.67 101.22,41.25 101.42,41.87 101.6,42.47 
		101.79,43.07 101.98,43.69 102.16,44.31 102.34,44.94 102.52,45.55 102.7,46.18 102.89,46.81 103.07,47.44 103.24,48.07 
		103.4,48.72 103.59,49.36 103.75,50 103.92,50.65 104.08,51.29 104.24,51.95 104.41,52.59 104.57,53.24 104.72,53.9 104.87,54.57 
		105.03,55.23 105.18,55.88 105.32,56.56 105.48,57.23 105.62,57.9 105.76,58.57 105.9,59.24 106.04,59.92 106.18,60.6 106.3,61.27 
		106.43,61.96 106.55,62.65 106.68,63.32 106.81,64 106.93,64.69 107.04,65.38 107.16,66.06 107.27,66.76 107.38,67.45 
		107.49,68.13 107.59,68.83 107.7,69.52 107.8,70.22 107.9,70.9 107.98,71.6 108.08,72.29 108.16,72.99 108.25,73.68 108.33,74.38 
		108.42,75.08 108.5,75.76 108.57,76.46 108.64,77.16 108.71,77.85 108.78,78.55 108.84,79.25 108.89,79.93 108.95,80.63 109,81.32 
		109.06,82.02 109.1,82.71 109.14,83.39 109.19,84.09 109.23,84.78 109.27,85.46 109.3,86.15 109.33,86.84 109.35,87.52 
		109.37,88.21 109.38,88.89 109.41,89.57 109.41,90.25 109.42,90.94 109.42,91.61 109.44,92.28 109.44,92.28 109.33,92.28 
		109.05,92.28 108.61,92.28 108.02,92.28 107.32,92.28 106.53,92.28 105.66,92.28 104.72,92.28 103.77,92.28 102.8,92.28 
		101.84,92.28 100.91,92.28 100.03,92.28 99.23,92.28 98.53,92.28 97.96,92.28 97.51,92.28 97.23,92.28 97.13,92.28 97.13,92.28 
		97.13,91.44 97.12,90.59 97.12,89.75 97.1,88.91 97.09,88.07 97.08,87.23 97.06,86.4 97.03,85.56 97.01,84.72 96.98,83.9 
		96.95,83.07 96.92,82.24 96.88,81.42 96.85,80.59 96.81,79.77 96.77,78.95 96.71,78.14 96.67,77.33 96.61,76.52 96.57,75.71 
		96.52,74.89 96.45,74.1 96.39,73.3 96.33,72.5 96.26,71.7 96.19,70.9 96.12,70.12 96.05,69.34 95.98,68.55 95.9,67.77 95.83,67 
		95.75,66.23 95.66,65.46 95.58,64.69 95.49,63.93 95.4,63.18 95.31,62.42 95.21,61.67 95.12,60.92 95.02,60.18 94.92,59.44 
		94.82,58.71 94.72,57.98 94.61,57.26 94.51,56.53 94.4,55.81 94.29,55.1 94.18,54.4 94.07,53.69 93.95,53 93.84,52.31 93.72,51.63 
		93.6,50.94 93.48,50.26 93.37,49.58 93.24,48.91 93.11,48.25 92.99,47.6 92.86,46.94 92.72,46.29 92.6,45.65 92.47,45.02 
		92.33,44.39 92.2,43.76 92.06,43.14 91.92,42.53 91.78,41.93 91.64,41.32 91.5,40.72 91.36,40.14 91.22,39.55 91.08,38.97 
		90.93,38.4 90.79,37.84 90.65,37.28 90.5,36.73 90.34,36.19 90.2,35.64 90.05,35.12 89.89,34.59 89.74,34.07 89.6,33.57 
		89.45,33.07 89.29,32.56 89.14,32.07 88.98,31.6 88.83,31.12 88.66,30.66 88.51,30.2 88.35,29.75 88.2,29.3 88.03,28.87 
		87.88,28.43 87.72,28.01 87.56,27.59 87.4,27.2 87.25,26.79 87.08,26.4 86.93,26.02 86.76,25.66 86.6,25.3 86.44,24.93 
		86.28,24.58 86.11,24.25 85.95,23.92 85.79,23.6 85.63,23.28 85.47,22.99 85.3,22.69 85.15,22.4 84.98,22.12 84.83,21.85 
		84.66,21.6 84.51,21.35 84.34,21.11 84.18,20.87 84.02,20.66 83.86,20.45 83.69,20.24 83.54,20.05 83.37,19.86 83.22,19.7 
		83.06,19.53 82.9,19.37 82.74,19.23 82.59,19.11 82.43,18.98 82.27,18.87 82.11,18.77 81.96,18.67 81.8,18.6 81.65,18.52 
		81.5,18.46 81.34,18.42 81.19,18.38 81.05,18.35 80.89,18.34 80.74,18.32 80.74,18.32 80.57,18.34 80.42,18.35 80.25,18.37 
		80.08,18.39 79.93,18.44 79.76,18.48 79.59,18.53 79.44,18.6 79.27,18.67 79.12,18.76 78.95,18.84 78.79,18.94 78.63,19.04 
		78.47,19.16 78.3,19.28 78.15,19.42 78,19.54 77.84,19.7 77.67,19.85 77.52,20.02 77.37,20.19 77.21,20.37 77.06,20.55 76.9,20.76 
		76.75,20.96 76.6,21.18 76.44,21.39 76.3,21.63 76.15,21.87 75.99,22.12 75.85,22.37 75.7,22.64 75.56,22.9 75.41,23.18 
		75.27,23.48 75.11,23.77 74.97,24.08 74.83,24.39 74.69,24.71 74.55,25.04 74.41,25.38 74.27,25.72 74.13,26.08 73.99,26.44 
		73.85,26.81 73.73,27.19 73.59,27.58 73.45,27.97 73.32,28.38 73.19,28.78 73.05,29.2 72.93,29.64 72.8,30.07 72.68,30.52 
		72.55,30.97 72.42,31.43 72.3,31.89 72.17,32.37 72.06,32.86 71.93,33.35 71.81,33.85 71.7,34.35 71.58,34.87 71.47,35.4 
		71.36,35.94 71.25,36.47 71.14,37.03 71.02,37.59 70.93,38.15 70.81,38.72 70.7,39.29 70.6,39.9 70.49,40.48 70.39,41.1 70.3,41.7 
		70.2,42.33 70.1,42.96 70,43.59 69.9,44.24 69.81,44.89 69.72,45.55 69.62,46.22 69.54,46.91 69.46,47.6 69.36,48.28 69.27,48.98 
		69.2,49.7 69.12,50.41 69.04,51.14 68.95,51.87 68.88,52.61 68.81,53.35 68.73,54.11 68.66,54.86 68.59,55.63 68.52,56.42 
		68.46,57.21 68.39,58 68.34,58.81 68.27,59.62 68.21,60.43 68.15,61.26 68.1,62.1 68.04,62.94 67.99,63.79 67.94,64.66 
		67.89,65.52 67.85,66.4 67.8,67.28 67.76,68.18 67.72,69.07 67.68,69.97 67.65,70.89 67.61,71.8 67.58,72.74 67.55,73.68 
		67.52,74.61 67.5,75.57 67.47,76.53 67.44,77.5 67.43,78.48 67.4,79.46 67.38,80.45 67.37,81.45 67.36,82.45 67.36,83.46 
		67.34,84.48 67.34,85.52 67.34,86.56 67.33,87.59 67.33,87.59 67.23,87.59 66.95,87.59 66.52,87.59 65.93,87.59 65.23,87.59 
		64.43,87.59 63.56,87.59 62.64,87.59 61.67,87.59 60.71,87.59 59.75,87.59 58.83,87.59 57.95,87.59 57.15,87.59 56.45,87.59 
		55.88,87.59 55.43,87.59 55.15,87.59 55.05,87.59 55.05,87.59 55.05,86.56 55.05,85.52 55.04,84.48 55.04,83.46 55.02,82.45 
		55.01,81.45 55,80.45 54.98,79.46 54.97,78.48 54.94,77.5 54.92,76.53 54.9,75.57 54.87,74.61 54.84,73.68 54.81,72.74 54.77,71.8 
		54.74,70.89 54.7,69.97 54.67,69.07 54.63,68.18 54.59,67.28 54.55,66.4 54.49,65.52 54.45,64.66 54.39,63.79 54.35,62.94 
		54.3,62.1 54.24,61.26 54.18,60.43 54.11,59.62 54.06,58.81 54,58 53.93,57.21 53.86,56.42 53.81,55.63 53.74,54.86 53.65,54.11 
		53.58,53.35 53.51,52.61 53.44,51.87 53.36,51.14 53.27,50.41 53.19,49.7 53.12,48.98 53.04,48.28 52.94,47.6 52.85,46.91 
		52.77,46.22 52.67,45.55 52.59,44.89 52.49,44.24 52.39,43.59 52.31,42.96 52.21,42.33 52.1,41.7 52,41.1 51.9,40.48 51.8,39.9 
		51.69,39.29 51.59,38.72 51.48,38.15 51.37,37.59 51.26,37.03 51.15,36.48 51.03,35.94 50.92,35.4 50.81,34.87 50.68,34.35 
		50.57,33.85 50.46,33.35 50.33,32.86 50.21,32.37 50.1,31.89 49.97,31.43 49.84,30.97 49.72,30.52 49.59,30.07 49.47,29.64 
		49.33,29.2 49.2,28.78 49.07,28.38 48.93,27.97 48.81,27.58 48.67,27.19 48.53,26.81 48.4,26.44 48.26,26.08 48.12,25.72 
		47.98,25.38 47.84,25.04 47.7,24.71 47.56,24.39 47.41,24.08 47.27,23.77 47.13,23.48 46.97,23.18 46.83,22.9 46.68,22.64 
		46.54,22.37 46.39,22.12 46.25,21.87 46.09,21.63 45.94,21.39 45.78,21.18 45.63,20.96 45.48,20.76 45.32,20.56 45.17,20.37 
		45.01,20.19 44.86,20.02 44.71,19.85 44.55,19.7 44.38,19.54 44.23,19.42 44.08,19.28 43.91,19.16 43.75,19.04 43.59,18.94 
		43.43,18.84 43.26,18.76 43.11,18.67 42.94,18.6 42.79,18.53 42.62,18.48 42.45,18.44 42.28,18.39 42.13,18.37 41.96,18.35 
		41.79,18.34 41.63,18.32 41.63,18.32 41.49,18.34 41.33,18.35 41.18,18.38 41.02,18.42 40.87,18.46 40.72,18.52 40.56,18.6 
		40.41,18.67 40.25,18.77 40.1,18.87 39.95,18.98 39.79,19.11 39.64,19.23 39.47,19.37 39.32,19.53 39.16,19.7 38.99,19.86 
		38.84,20.05 38.69,20.24 38.52,20.44 38.36,20.66 38.2,20.87 38.04,21.11 37.87,21.35 37.72,21.6 37.55,21.85 37.4,22.12 
		37.23,22.4 37.08,22.69 36.91,22.99 36.75,23.28 36.59,23.6 36.43,23.92 36.26,24.25 36.1,24.58 35.94,24.93 35.77,25.3 
		35.62,25.66 35.45,26.02 35.3,26.4 35.14,26.79 34.98,27.2 34.82,27.61 34.65,28.01 34.5,28.43 34.35,28.87 34.18,29.3 
		34.02,29.75 33.87,30.2 33.72,30.66 33.56,31.12 33.41,31.6 33.25,32.07 33.1,32.56 32.95,33.07 32.79,33.57 32.64,34.07 
		32.48,34.59 32.33,35.12 32.19,35.65 32.04,36.19 31.88,36.73 31.74,37.28 31.59,37.84 31.45,38.4 31.31,38.97 31.15,39.55 
		31.01,40.14 30.87,40.72 30.73,41.32 30.59,41.93 30.45,42.53 30.33,43.14 30.19,43.76 30.05,44.39 29.92,45.02 29.78,45.65 
		29.66,46.29 29.53,46.95 29.4,47.6 29.28,48.25 29.15,48.93 29.03,49.58 28.9,50.27 28.79,50.94 28.66,51.63 28.55,52.31 28.42,53 
		28.31,53.7 28.2,54.4 28.09,55.1 27.98,55.81 27.88,56.53 27.77,57.26 27.67,57.98 27.56,58.71 27.46,59.44 27.36,60.18 
		27.26,60.92 27.18,61.67 27.08,62.42 26.98,63.18 26.9,63.93 26.82,64.69 26.73,65.46 26.65,66.23 26.56,67 26.48,67.78 
		26.41,68.55 26.34,69.34 26.27,70.12 26.2,70.92 26.13,71.7 26.06,72.5 26,73.3 25.93,74.1 25.88,74.89 25.82,75.71 25.77,76.52 
		25.72,77.33 25.67,78.14 25.63,78.95 25.58,79.78 25.54,80.59 25.5,81.42 25.47,82.24 25.43,83.07 25.4,83.9 25.37,84.74 
		25.36,85.56 25.33,86.4 25.32,87.23 25.3,88.07 25.29,88.91 25.28,89.75 25.26,90.59 25.26,91.44 25.26,92.28 25.26,92.28 
		25.16,92.28 24.88,92.28 24.44,92.28 23.86,92.28 23.15,92.28 22.35,92.28 21.48,92.28 20.56,92.28 19.59,92.28 18.63,92.28 
		17.66,92.28 16.74,92.28 15.87,92.28 15.07,92.28 14.37,92.28 13.78,92.28 13.33,92.28 13.05,92.28 12.96,92.28 12.96,92.28 
		12.96,91.61 12.97,90.92 12.97,90.25 12.98,89.57 13,88.89 13.03,88.21 13.04,87.52 13.07,86.84 13.1,86.15 13.12,85.46 
		13.17,84.76 13.21,84.08 13.25,83.39 13.29,82.69 13.33,82.01 13.39,81.32 13.45,80.62 13.5,79.92 13.56,79.23 13.61,78.53 
		13.68,77.85 13.75,77.15 13.82,76.45 13.91,75.76 13.98,75.06 14.06,74.36 14.15,73.68 14.23,72.98 14.31,72.28 14.41,71.59 
		14.5,70.89 14.59,70.21 14.69,69.5 14.8,68.82 14.9,68.12 15.01,67.43 15.13,66.75 15.24,66.05 15.35,65.36 15.46,64.68 
		15.59,63.99 15.71,63.3 15.84,62.63 15.97,61.95 16.09,61.26 16.22,60.59 16.36,59.9 16.5,59.23 16.64,58.56 16.78,57.89 
		16.92,57.21 17.07,56.54 17.21,55.87 17.37,55.21 17.52,54.54 17.67,53.88 17.83,53.22 17.98,52.58 18.15,51.94 18.3,51.28 
		18.47,50.63 18.64,49.99 18.81,49.35 18.98,48.7 19.16,48.06 19.33,47.43 19.51,46.8 19.68,46.17 19.86,45.54 20.04,44.92 
		20.22,44.29 20.42,43.68 20.6,43.06 20.78,42.46 20.98,41.86 21.17,41.24 21.37,40.65 21.56,40.05 21.76,39.46 21.96,38.87 
		22.15,38.29 22.35,37.71 22.56,37.14 22.77,36.57 22.97,35.99 23.18,35.43 23.39,34.87 23.6,34.31 23.8,33.77 24.02,33.22 
		24.24,32.69 24.45,32.14 24.66,31.61 24.88,31.09 25.11,30.56 25.32,30.06 25.54,29.54 25.77,29.03 25.99,28.53 26.21,28.04 
		26.44,27.54 26.66,27.06 26.89,26.58 27.12,26.11 27.35,25.63 27.59,25.17 27.81,24.71 28.05,24.26 28.27,23.81 28.51,23.38 
		28.75,22.94 28.98,22.51 29.22,22.09 29.46,21.68 29.7,21.26 29.94,20.87 30.17,20.47 30.41,20.07 30.65,19.7 30.89,19.32 
		31.13,18.95 31.38,18.59 31.62,18.23 31.85,17.88 32.11,17.54 32.34,17.2 32.6,16.88 32.83,16.56 33.09,16.24 33.32,15.93 
		33.58,15.64 33.81,15.34 34.07,15.06 34.32,14.78 34.56,14.52 34.81,14.26 35.06,14 35.3,13.76 35.55,13.52 35.8,13.3 36.04,13.07 
		36.29,12.86 36.54,12.65 36.8,12.46 37.03,12.28 37.29,12.09 37.54,11.93 37.79,11.76 38.03,11.6 38.28,11.46 38.53,11.32 
		38.77,11.2 39.02,11.09 39.27,10.98 39.51,10.88 39.76,10.78 40.02,10.71 40.25,10.62 40.51,10.57 40.74,10.51 41,10.47 
		41.23,10.44 41.49,10.41 41.72,10.4 41.96,10.4 41.96,10.4 42.37,10.4 42.77,10.43 43.17,10.48 43.56,10.55 43.95,10.64 
		44.33,10.75 44.71,10.88 45.08,11.03 45.45,11.18 45.81,11.37 46.18,11.56 46.53,11.77 46.88,12.01 47.23,12.25 47.58,12.51 
		47.91,12.79 48.23,13.09 48.57,13.4 48.89,13.7 49.21,14.04 49.54,14.39 49.84,14.75 50.15,15.13 50.45,15.51 50.75,15.92 
		51.05,16.32 51.33,16.74 51.62,17.18 51.9,17.62 52.18,18.07 52.45,18.53 52.71,19.01 52.98,19.49 53.25,19.99 53.5,20.48 
		53.75,21 54,21.5 54.24,22.03 54.48,22.57 54.71,23.1 54.95,23.64 55.18,24.19 55.4,24.75 55.62,25.31 55.83,25.87 56.04,26.44 
		56.25,27.02 56.45,27.61 56.66,28.18 56.84,28.77 57.04,29.36 57.22,29.94 57.42,30.55 57.59,31.13 57.77,31.74 57.93,32.32 
		58.1,32.93 58.27,33.53 58.42,34.13 58.58,34.72 58.73,35.32 58.89,35.92 59.03,36.51 59.17,37.11 59.31,37.7 59.43,38.29 
		59.57,38.87 59.7,39.46 59.81,40.04 59.94,40.61 60.05,41.18 60.16,41.74 60.26,42.32 60.37,42.86 60.47,43.42 60.57,43.97 
		60.65,44.5 60.75,45.03 60.83,45.57 60.92,46.08 60.99,46.59 61.07,47.09 61.14,47.58 61.2,48.07 61.2,48.07 	"/>
	<polygon class="st4" points="53.16,77.37 53.16,63.05 109.82,63.05 109.82,77.37 53.16,77.37 	"/>
	<polygon class="st6" points="104.09,64.21 107.66,64.21 107.66,75.94 104.09,75.94 104.09,64.21 	"/>
	<polygon class="st6" points="120.78,64.21 123.2,64.21 122.37,67.41 120.61,67.41 120.78,64.21 	"/>
	<polygon class="st6" points="127.38,65.95 128.08,65.96 128.77,66.03 129.43,66.15 130.03,66.3 130.58,66.54 131.05,66.83 
		131.44,67.21 131.74,67.67 131.92,68.23 131.99,68.88 131.99,68.88 131.46,68.88 130.3,68.88 129.13,68.88 128.6,68.88 
		128.6,68.88 128.46,68.22 128.03,67.83 127.34,67.71 127.34,67.71 126.85,67.78 126.43,68.06 126.25,68.64 126.25,68.64 
		126.36,69.07 126.67,69.38 127.13,69.57 127.72,69.7 128.39,69.81 129.11,69.92 129.82,70.09 129.82,70.09 130.51,70.36 
		131.11,70.68 131.61,71.1 131.99,71.59 132.23,72.16 132.31,72.82 132.31,72.82 132.27,73.4 132.14,73.91 131.93,74.39 
		131.64,74.8 131.26,75.17 130.81,75.48 130.28,75.73 129.68,75.94 128.98,76.1 128.22,76.18 127.38,76.21 127.38,76.21 
		126.52,76.18 125.75,76.1 125.07,75.96 124.5,75.75 124.01,75.5 123.6,75.19 123.28,74.81 123.03,74.39 122.86,73.93 122.76,73.4 
		122.72,72.82 122.72,72.82 123.27,72.82 124.44,72.82 125.62,72.82 126.15,72.82 126.15,72.82 126.32,73.54 126.75,73.98 
		127.4,74.14 127.4,74.14 128.1,74.04 128.52,73.72 128.66,73.2 128.66,73.2 128.52,72.72 128.15,72.39 127.61,72.14 126.96,71.97 
		126.25,71.81 125.54,71.68 124.89,71.51 124.89,71.51 124.35,71.27 123.84,70.92 123.45,70.43 123.18,69.8 123.09,69 123.09,69 
		123.11,68.61 123.21,68.2 123.38,67.78 123.63,67.39 123.97,67 124.42,66.66 124.98,66.37 125.65,66.15 126.45,65.99 127.38,65.95 
		127.38,65.95 	"/>
	<polygon class="st6" points="54.38,72.39 54.18,73 53.93,73.56 53.61,74.1 53.25,74.57 52.83,74.99 52.35,75.36 51.85,75.66 
		51.29,75.9 50.7,76.08 50.08,76.2 49.44,76.22 49.44,76.22 48.82,76.2 48.23,76.1 47.67,75.93 47.16,75.72 46.65,75.44 46.2,75.1 
		45.78,74.73 45.41,74.29 45.08,73.82 44.82,73.3 44.61,72.74 44.44,72.14 44.34,71.51 44.31,70.83 44.31,70.83 44.34,70.16 
		44.43,69.53 44.58,68.93 44.78,68.37 45.03,67.85 45.34,67.38 45.7,66.94 46.09,66.57 46.55,66.23 47.04,65.95 47.58,65.74 
		48.16,65.57 48.78,65.47 49.44,65.45 49.44,65.45 50.14,65.47 50.78,65.59 51.38,65.77 51.94,66.01 52.46,66.31 52.92,66.68 
		53.33,67.1 53.68,67.57 53.97,68.1 54.21,68.68 54.39,69.3 54.39,69.3 53.88,69.3 52.73,69.3 51.58,69.3 51.06,69.3 51.06,69.3 
		50.73,68.65 50.19,68.22 49.44,68.05 49.44,68.05 48.79,68.16 48.3,68.5 47.95,68.97 47.73,69.56 47.62,70.21 47.58,70.83 
		47.58,70.83 47.62,71.46 47.73,72.11 47.95,72.7 48.3,73.17 48.79,73.51 49.44,73.62 49.44,73.62 50.19,73.45 50.71,73.02 
		51.06,72.39 51.06,72.39 51.58,72.39 52.71,72.39 53.86,72.39 54.38,72.39 54.38,72.39 	"/>
	<polygon class="st6" points="29.78,64.21 34.04,64.21 35.9,71.14 37.75,64.21 42.02,64.21 43.88,76.22 40.37,76.22 39.43,69.21 
		37.51,76.22 34.28,76.22 32.36,69.21 31.43,76.22 27.91,76.22 29.78,64.21 	"/>
	<polygon class="st6" points="84.41,70.19 84.41,70.56 84.41,71.27 84.41,72.19 84.41,73.21 84.41,74.22 84.41,75.1 84.41,75.71 
		84.41,75.94 84.41,75.94 80.88,75.94 80.88,65.7 84.41,65.7 84.41,65.7 84.41,65.89 84.41,66.29 84.41,66.5 84.41,66.5 
		84.94,66.12 85.5,65.82 86.16,65.61 86.96,65.49 87.93,65.45 87.93,65.45 88.66,65.5 89.34,65.67 89.94,65.94 90.47,66.29 
		90.9,66.69 91.24,67.15 91.45,67.64 91.52,68.16 91.52,68.16 91.52,68.32 91.52,68.73 91.52,69.38 91.52,70.18 91.52,71.09 
		91.52,72.05 91.52,73.02 91.52,73.93 91.52,74.73 91.52,75.37 91.52,75.79 91.52,75.94 91.52,75.94 87.98,75.94 87.98,75.94 
		87.98,75.69 87.98,75.06 87.98,74.15 87.98,73.12 87.98,72.08 87.98,71.18 87.98,70.54 87.98,70.3 87.98,70.3 87.82,69.65 
		87.43,69.1 86.88,68.73 86.21,68.59 86.21,68.59 85.23,68.89 84.65,69.53 84.41,70.19 84.41,70.19 	"/>
	<path class="st6" d="M115.85,66.71v-0.64v-1.2v-0.64l0,0h3.57v11.73h-3.57l0,0v-0.15v-0.28v-0.14l0,0l-0.55,0.41l-0.81,0.32
		l-1.26,0.13l0,0l-0.42-0.01l-0.43-0.07l-0.46-0.1l-0.46-0.15l-0.45-0.21l-0.45-0.28l-0.42-0.35l-0.38-0.43l-0.34-0.5l-0.28-0.6
		l-0.21-0.69l-0.13-0.78l-0.06-0.9l0,0l0.04-0.84l0.11-0.76l0.2-0.66l0.24-0.59l0.31-0.5l0.34-0.43l0.39-0.36l0.41-0.31l0.43-0.25
		l0.45-0.18l0.46-0.14l0.45-0.1l0.45-0.06l0.43-0.01l0,0l1.19,0.14l0.77,0.29L115.85,66.71L115.85,66.71L115.85,66.71z
		 M112.15,71.14l0.08,0.88l0.25,0.73l0.41,0.55l0.55,0.35l0.69,0.11l0,0l0.69-0.1l0.59-0.34l0.45-0.55l0,0v-0.49v-1.05v-1.06V69.7
		l0,0l-0.34-0.62l-0.59-0.41l-0.8-0.15l0,0l-0.69,0.11l-0.55,0.34l-0.41,0.55l-0.25,0.73L112.15,71.14L112.15,71.14L112.15,71.14z"
		/>
	<path class="st6" d="M69.06,70.83l0.03-0.63l0.07-0.59l0.14-0.56l0.18-0.53l0.24-0.5L70,67.56l0.32-0.42l0.38-0.38l0.42-0.34
		l0.43-0.29l0.5-0.24l0.53-0.2l0.57-0.14l0.62-0.08l0.64-0.03l0,0l0.64,0.03l0.6,0.08l0.59,0.14l0.53,0.2l0.49,0.24l0.46,0.29
		l0.42,0.34l0.36,0.38l0.34,0.42l0.28,0.46l0.22,0.49l0.2,0.55l0.13,0.56l0.08,0.59l0.03,0.63l0,0l-0.03,0.63l-0.08,0.59l-0.13,0.57
		l-0.18,0.53l-0.24,0.49l-0.28,0.46l-0.34,0.42l-0.36,0.38l-0.42,0.34l-0.46,0.29l-0.49,0.24l-0.53,0.2l-0.59,0.14l-0.6,0.08
		l-0.64,0.03l0,0l-0.64-0.03l-0.62-0.08l-0.57-0.14l-0.53-0.2l-0.5-0.24l-0.43-0.29l-0.42-0.34l-0.38-0.38L70,74.11l-0.28-0.46
		l-0.24-0.49l-0.18-0.53l-0.14-0.57l-0.07-0.59L69.06,70.83L69.06,70.83L69.06,70.83z M76.47,70.83l-0.04-0.63l-0.13-0.64
		l-0.25-0.59l-0.38-0.48l-0.53-0.34l-0.71-0.11l0,0l-0.71,0.11l-0.53,0.34l-0.38,0.48l-0.25,0.59l-0.13,0.64l-0.04,0.63l0,0
		l0.04,0.63l0.13,0.64l0.25,0.59l0.38,0.48l0.53,0.34l0.71,0.11l0,0l0.71-0.11l0.53-0.34l0.38-0.48l0.25-0.59l0.13-0.64L76.47,70.83
		L76.47,70.83L76.47,70.83z"/>
	<path class="st6" d="M55.62,64.21h0.21h0.56h0.81h0.97h1.02h0.97h0.81h0.56h0.21l0,0l0.67,0.01l0.63,0.08l0.6,0.11l0.59,0.17
		l0.55,0.21l0.5,0.25l0.48,0.29l0.43,0.32l0.41,0.38l0.36,0.41l0.31,0.43l0.28,0.48l0.22,0.52l0.18,0.55l0.13,0.56l0.08,0.6
		l0.03,0.63l0,0l-0.03,0.63l-0.08,0.6l-0.13,0.56l-0.18,0.55l-0.22,0.5l-0.28,0.49l-0.31,0.43l-0.36,0.41l-0.41,0.38l-0.43,0.32
		l-0.48,0.29l-0.5,0.25l-0.55,0.21l-0.59,0.17l-0.6,0.11l-0.63,0.07l-0.67,0.03l0,0h-0.21h-0.56h-0.81h-0.97h-1.02h-0.97h-0.81
		h-0.56h-0.21l0,0V64.21L55.62,64.21z M59.67,73.38h0.48h0.9h0.48l0,0l0.53-0.04l0.53-0.15l0.49-0.28l0.45-0.42l0.35-0.57l0.22-0.76
		l0.08-0.94l0,0l-0.08-0.94l-0.22-0.76l-0.35-0.57l-0.45-0.42l-0.49-0.28l-0.53-0.15l-0.53-0.04l0,0h-0.48h-0.9h-0.48l0,0V73.38
		L59.67,73.38z"/>
	<path class="st6" d="M97.87,65.45l0.74,0.03l0.71,0.08L100,65.7l0.6,0.2l0.55,0.27l0.48,0.32l0.41,0.39l0.31,0.45l0.21,0.52
		l0.11,0.57l0,0v0.18v0.48v0.71v0.9v0.98v1.02v0.99v0.88v0.73v0.48v0.18l0,0h-3.57l0,0v-0.27v-0.49v-0.27l0,0l-0.53,0.42L98,75.71
		l-0.62,0.28l-0.73,0.17l-0.85,0.07l0,0l-0.67-0.07l-0.62-0.18l-0.55-0.29l-0.49-0.38l-0.41-0.48l-0.29-0.52l-0.2-0.59l-0.07-0.62
		l0,0l0.03-0.42l0.07-0.42l0.14-0.42l0.2-0.41l0.27-0.39l0.35-0.35l0.42-0.32l0.53-0.28l0.63-0.22l0.74-0.17l0.84-0.11l0.98-0.04
		l0,0l0.84-0.13l0.42-0.34l0.13-0.46l0,0l-0.21-0.52l-0.49-0.32l-0.6-0.11l0,0l-0.6,0.08l-0.48,0.29l-0.2,0.52l0,0H96h-1.15H93.7
		h-0.53l0,0l0.03-0.42l0.08-0.41l0.15-0.41l0.22-0.38l0.29-0.35l0.39-0.32l0.49-0.28l0.59-0.24l0.7-0.17l0.81-0.11L97.87,65.45
		L97.87,65.45L97.87,65.45z M97.68,71.21l-0.77,0.15l-0.59,0.42L96.1,72.5l0,0l0.11,0.5l0.38,0.36l0.67,0.14l0,0l0.8-0.15l0.66-0.49
		l0.38-0.83l0,0V71.8v-0.45v-0.24l0,0l-0.38,0.08l-0.5,0.03L97.68,71.21L97.68,71.21L97.68,71.21z"/>
	<path class="st5" d="M114.88,84.29h0.57h1.05h0.57l0,0l0.94,0.18l0.63,0.48l0.24,0.69l0,0l-0.17,0.63l-0.45,0.42l-0.62,0.2l0,0l0,0
		v0.01l0,0l0,0l0.77,0.48l0.35,0.69l0.08,0.9l0,0h-0.25h-0.48h-0.25l0,0l-0.13-0.97l-0.41-0.55l-0.8-0.18l0,0h-0.21h-0.38h-0.21l0,0
		v1.69h-0.87V84.29L114.88,84.29z M115.75,86.51h0.27h0.49h0.27l0,0l0.64-0.1l0.38-0.27l0.11-0.45l0,0l-0.1-0.35l-0.31-0.24
		l-0.59-0.08l0,0h-0.31h-0.56h-0.29l0,0V86.51L115.75,86.51z M116.67,82.66l0.66,0.06l0.62,0.15l0.57,0.24l0.52,0.32l0.48,0.41
		l0.39,0.46l0.34,0.52l0.24,0.59l0.15,0.62l0.06,0.64l0,0l-0.06,0.66l-0.15,0.62l-0.24,0.57l-0.34,0.53l-0.39,0.46l-0.48,0.41
		l-0.52,0.32l-0.57,0.24l-0.62,0.15l-0.66,0.06l0,0l-0.64-0.06l-0.62-0.15l-0.57-0.24l-0.53-0.32l-0.46-0.41l-0.41-0.46l-0.32-0.53
		l-0.24-0.57l-0.15-0.62l-0.06-0.66l0,0l0.06-0.64l0.15-0.62l0.24-0.59l0.32-0.52l0.41-0.46l0.46-0.41l0.53-0.32l0.57-0.24
		l0.62-0.15L116.67,82.66L116.67,82.66L116.67,82.66z M116.67,90.25l0.64-0.06l0.6-0.17l0.56-0.27l0.5-0.35l0.43-0.43l0.35-0.49
		l0.27-0.56l0.17-0.62l0.06-0.64l0,0l-0.06-0.64l-0.17-0.6l-0.27-0.56l-0.35-0.49l-0.43-0.43l-0.5-0.35l-0.56-0.27l-0.6-0.17
		l-0.64-0.06l0,0l-0.64,0.06l-0.6,0.17l-0.55,0.27l-0.5,0.35l-0.43,0.43l-0.35,0.49l-0.27,0.56l-0.17,0.6l-0.06,0.64l0,0l0.06,0.64
		l0.17,0.62l0.27,0.56l0.35,0.49l0.43,0.43l0.5,0.35l0.55,0.27l0.6,0.17L116.67,90.25L116.67,90.25L116.67,90.25z"/>
</g>
</svg>
