<?xml version="1.0" encoding="utf-8"?>
<!-- Generator: Adobe Illustrator 27.2.0, SVG Export Plug-In . SVG Version: 6.00 Build 0)  -->
<svg version="1.1" id="Layer_1" xmlns="http://www.w3.org/2000/svg" xmlns:xlink="http://www.w3.org/1999/xlink" x="0px" y="0px"
	 viewBox="0 0 322 106" style="enable-background:new 0 0 322 106;" xml:space="preserve">
<style type="text/css">
	.st0{fill-rule:evenodd;clip-rule:evenodd;fill:#FEBE10;}
	.st1{fill-rule:evenodd;clip-rule:evenodd;fill:#0060A9;}
	.st2{fill-rule:evenodd;clip-rule:evenodd;fill:#ED1C2E;}
	.st3{fill-rule:evenodd;clip-rule:evenodd;fill:#FFFFFF;}
	.st4{fill:#C2302D;}
	.st5{fill:#F5AE26;}
	.st6{fill:#FFFFFF;}
	.st7{fill-rule:evenodd;clip-rule:evenodd;fill:#F0B638;}
	.st8{fill:#F0B638;}
	.st9{fill:none;stroke:#F0B638;stroke-width:0.5;stroke-miterlimit:10;}
	.st10{fill:#FFFFFF;stroke:#F0B638;stroke-width:0.5;stroke-miterlimit:10;}
	.st11{fill:#EFC13A;}
</style>
<g>
	<path class="st7" d="M96.41,76.45c0,6.33,1.26,11.77,6.09,11.77c4.79,0,6.09-5.43,6.09-11.77c0-6.33-1.3-11.76-6.09-11.76
		C97.67,64.69,96.41,70.12,96.41,76.45 M102.5,93.74c-10.62,0-13.71-7.54-13.71-17.29c0-9.75,3.09-17.27,13.71-17.27
		c10.57,0,13.71,7.51,13.71,17.27C116.21,86.2,113.07,93.74,102.5,93.74"/>
	<path class="st7" d="M68.41,64.72v8.86c3.85,0,7.32,0.02,7.32-4.58c0-1.28-0.23-4.28-3.93-4.28H68.41z M86.28,92.76h-2.5
		c-5.03,0-7.1-3.74-8.4-8.45c-0.29-1.06-0.56-2.41-1.15-3.49c-0.93-1.51-2.5-1.68-4.1-1.74c-0.41,0-1.42,0-1.7,0v7.66h2.02v6H58.51
		v-6h2.82V64.96h-2.82v-5.79h13.32c7.2,0,10.99,3.12,11.09,9.2c0.06,3.72-1.65,6.19-4.66,7.5c0.46,0.27,0.81,0.43,1.41,0.98
		c1.5,1.36,2.02,3.64,2.36,4.9c0.57,2.14,0.68,5.39,4.25,5.27V92.76z"/>
	<path class="st8" d="M45.92,64.96h-1.94v-5.78h11.7v5.78H53v17.19c0,9.65-7.65,11.08-11.87,11.08c-3.9,0-11.93-1.4-11.93-11.08
		v-17.2h-2.8v-5.79h12.27v5.79h-2.4v17.18c0.02,0.79,0.07,1.57,0.26,2.34c0.24,0.91,0.68,1.78,1.43,2.36
		c0.87,0.67,2.07,0.93,3.15,0.9c1.28-0.04,2.48-0.31,3.44-1.19c1.13-1.04,1.32-2.98,1.36-4.41V64.97V64.96z"/>
	<path class="st7" d="M154.83,76.85h5.75l-2.88-9.88L154.83,76.85z M173.48,86.75v6h-11.77v-6h2.03l-1.33-4.12h-9.4l-1.33,4.12h2.47
		v6h-11.77v-6h2.01l9.49-27.57h7.71l9.45,27.57h2.86H173.48z"/>
	<path class="st7" d="M129.56,64.69v8.95h1.97c3.29,0,4.91-1.83,4.91-4.53c0-3.04-1.57-4.42-4.9-4.42H129.56z M119.67,59.18h9.94
		c7.8,0,13.92,1.04,13.92,10.19c0,7.09-5.74,9.78-11.98,9.78h-1.99v7.6h3.2v6h-13.09v-6h2.81V64.97h-2.81l-0.01-5.8H119.67z"/>
	<polygon class="st8" points="16.95,86.95 9.54,86.95 9.54,78.27 17.02,78.27 17.02,72.49 9.54,72.49 9.54,64.96 16.97,64.96 
		17.58,67.55 23.39,67.55 22.77,59.18 0,59.18 0,64.96 2.46,64.96 2.46,86.95 0,86.95 0,92.75 22.83,92.75 23.73,84.05 17.56,84.05 
			"/>
	<polygon class="st8" points="320.27,86.95 310.98,75.19 319.72,64.96 321.04,64.96 321.04,59.18 309.7,59.18 309.7,64.96 
		310.45,64.96 303.99,72.78 303.99,64.96 306.36,64.96 306.36,59.18 294.68,59.18 294.68,64.96 296.91,64.96 296.91,86.95 
		294.68,86.95 294.68,92.75 306.62,92.75 306.62,86.95 303.99,86.95 303.99,76.98 311.7,86.95 310.5,86.95 310.5,92.75 322,92.75 
		322,86.95 	"/>
	<path class="st7" d="M217.79,64.69v8.95h1.97c3.29,0,4.91-1.83,4.91-4.53c0-3.04-1.58-4.42-4.9-4.42H217.79z M207.9,59.18h9.94
		c7.8,0,13.92,1.04,13.92,10.19c0,7.09-5.74,9.78-11.98,9.78h-1.99v7.8h3.2v5.8H207.9v-6h2.81V64.97h-2.81V59.18z"/>
	<path class="st7" d="M242.8,76.84h5.75l-2.88-9.88L242.8,76.84z M261.45,86.94v5.8h-11.77v-5.8h2.03l-1.33-4.31h-9.4l-1.33,4.31
		h2.47v5.8h-11.76v-5.8h2.01l9.49-27.76h7.71l9.45,27.76H261.45z"/>
	<path class="st7" d="M274.05,64.72v8.86c3.85,0,7.32,0.02,7.32-4.58c0-1.28-0.23-4.28-3.93-4.28H274.05z M291.93,92.76h-1.66
		c-5.03,0-7.95-3.74-9.24-8.45c-0.29-1.06-0.56-2.41-1.15-3.49c-0.94-1.51-2.5-1.68-4.1-1.74c-0.41,0-1.42,0-1.7,0v7.86h2.02v5.8
		h-11.94v-5.8h2.82V64.96h-2.82v-5.79h13.32c7.2,0,10.99,3.12,11.09,9.2c0.05,3.72-1.65,6.19-4.66,7.5c0.46,0.27,0.8,0.43,1.41,0.98
		c1.5,1.36,2.03,3.64,2.36,4.9c0.58,2.14,0.68,5.39,4.25,5.27V92.76z"/>
	<path class="st9" d="M194.13,56.8l2.44,8.42c-2.86-1.13-5.74-2.21-8.79-2.96l-15,6.38l7.57-11.28l15.09-7.64L207,51.38L194.13,56.8
		z"/>
	<path class="st7" d="M206.51,48.48c-3.5,2.38-9.34,5.5-11.58,6.11c1.34,2.62,2.19,5.22,2.72,7.88c-3.01-1.51-6.34-3.24-11.15-3.35
		l-13.71,9.1l7.22-11.54l-8.11-5.44l12.87-1.03l6.08-9.35l2.93,8.23C196.61,49.3,202.08,48.96,206.51,48.48L206.51,48.48z"/>
	<path class="st9" d="M230.73,35.36c3.87-2.78,7.88-5.75,11.81-8.45c-2.99,1.5-6.26,3.06-9.23,4.63c-3.95,2.08-7.8,2.86-12.08,1.83
		c-0.31-0.08-0.64-0.24-0.87-0.48c-2.97,4.28-5.49,8.35-9.08,12.02c5.12-1.55,8.74-2.48,13.38-5.15c2.45,0.84,9.25,2.69,11.45,4.93
		C235.68,41.32,232.15,38.48,230.73,35.36"/>
	<path class="st8" d="M235.7,33.31c2.2-2.23,4.44-4.4,6.84-6.41c-3.7,1.57-6.99,3.37-10.38,4.67c-3.2,1.24-6.49,2.02-10.26,1.74
		c-0.51-0.04-1.08-0.18-1.53-0.43c0.25,5.15-3.14,11.27-5.63,16.12c5.62-3.28,11.86-5.91,15.89-11.21c4.9-0.1,8.64-0.05,15.13,1.44
		C243.06,36.44,239.16,34.44,235.7,33.31"/>
	<path class="st8" d="M269,20.57c4.31-1.13,8.55-1.45,12.97-0.9c-12.22,1.93-17.02,6.04-18.7,11.88c-4.43-0.65-9.76-2.19-15.67-6.88
		c3.96,0.73,8.4,0.92,14.4-1.33c-0.46-3.41-0.44-7.03,0.44-11.09C263.96,15.38,266.32,18.15,269,20.57"/>
	<path class="st10" d="M273.03,20.95c2.93-0.86,5.9-1.27,8.95-1.28c-10.18,2.08-13.42,6.44-18.71,11.88
		c-2.72-1.06-5.25-2.33-7.65-4.01c5.67-0.83,9.28-3.29,11.41-4.03c2.41-4.13,5.61-7.39,9.61-9.98
		C274.99,15.83,273.82,18.26,273.03,20.95"/>
</g>
</svg>
