<?xml version="1.0" encoding="utf-8"?>
<!-- Generator: Adobe Illustrator 27.2.0, SVG Export Plug-In . SVG Version: 6.00 Build 0)  -->
<svg version="1.1" id="Layer_1" xmlns="http://www.w3.org/2000/svg" xmlns:xlink="http://www.w3.org/1999/xlink" x="0px" y="0px"
	 viewBox="0 0 249 44" style="enable-background:new 0 0 249 44;" xml:space="preserve">
<style type="text/css">
	.st0{fill:#EFC13A;}
</style>
<g>
	<g>
		<g>
			<path class="st0" d="M39.21,39.97c-0.06,0.13-0.11,0.26-0.17,0.38c-0.29,0.55-0.91,0.85-1.5,0.75c-0.63-0.11-1.09-0.6-1.16-1.24
				c-0.02-0.19-0.03-0.38-0.03-0.57c0-5.52,0-11.04,0-16.56c0-0.16,0-0.32,0-0.5c-0.38-0.02-0.73-0.02-1.06-0.06
				c-0.84-0.1-1.41-0.83-1.3-1.67c0.41-3.07,0.83-6.13,1.24-9.2c0.31-2.32,0.63-4.65,0.94-6.97c0.12-0.9,0.74-1.48,1.57-1.44
				c0.82,0.03,1.42,0.66,1.43,1.57c0.02,0.99,0.01,1.98,0.01,2.97c0,0.24,0.03,0.48,0.04,0.72C39.21,18.75,39.21,29.36,39.21,39.97z
				"/>
			<path class="st0" d="M32.12,19.48c-1.67-6.35-7.78-9.74-13.53-8.5c-5.71,1.23-9.57,6.48-9.05,12.22
				c0.53,5.79,5.27,10.27,11.09,10.44c3.17,0.09,5.93-0.98,8.23-3.16c2.28-2.18,3.44-4.88,3.57-8.1c0.1,0.13,0.16,0.2,0.22,0.28
				c0.39,0.54,0.87,0.96,1.49,1.2c0.21,0.08,0.28,0.19,0.28,0.42c-0.01,2.17,0,4.34-0.01,6.51c0,0.16-0.06,0.35-0.16,0.49
				c-2.92,4.12-6.87,6.54-11.91,6.95c-5.84,0.47-10.57-1.74-14.21-6.32c-0.11-0.13-0.17-0.34-0.17-0.52
				C7.94,27.26,7.95,23.13,7.94,19c0-0.24,0.08-0.39,0.28-0.53c1.78-1.3,2.63-3.07,2.65-5.25c0.01-1.09-0.01-2.18,0.01-3.27
				c0-0.16,0.1-0.37,0.22-0.46c3.09-2.39,6.6-3.54,10.49-3.37c4.56,0.19,8.37,2.05,11.42,5.44c0.09,0.1,0.16,0.27,0.14,0.4
				c-0.32,2.44-0.65,4.88-0.98,7.32C32.18,19.31,32.16,19.35,32.12,19.48z"/>
			<path class="st0" d="M20.96,31.71c-5.23,0-9.54-4.31-9.52-9.52c0.02-5.25,4.31-9.53,9.54-9.5c5.26,0.03,9.48,4.25,9.49,9.5
				C30.48,27.42,26.2,31.71,20.96,31.71z"/>
			<path class="st0" d="M2.17,10.07c0.48,0,0.92,0,1.4,0c0.01-0.15,0.02-0.28,0.02-0.41c0-1.57,0-3.15,0.01-4.72
				c0-0.22,0.03-0.46,0.12-0.66C3.9,3.85,4.37,3.64,4.78,3.75c0.45,0.12,0.76,0.51,0.76,1.02c0.01,1.62,0,3.25,0,4.87
				c0,0.14,0,0.27,0,0.43c0.49,0,0.93,0,1.43,0c0-0.17,0-0.32,0-0.47c0-1.62,0-3.25,0-4.87c0-0.44,0.22-0.75,0.6-0.93
				c0.36-0.17,0.7-0.08,0.99,0.17C8.84,4.2,8.92,4.51,8.91,4.86c-0.01,2.12,0,4.24,0,6.36c0,0.81,0.03,1.63-0.02,2.44
				c-0.1,1.78-0.98,3.05-2.6,3.8c-0.26,0.12-0.3,0.27-0.3,0.52C6,25.13,6,32.29,6,39.45c0,0.87-0.35,1.41-1.05,1.61
				c-0.78,0.22-1.61-0.27-1.76-1.07c-0.04-0.22-0.05-0.45-0.05-0.68c0-7.08,0-14.16,0-21.25c0-0.33-0.09-0.49-0.41-0.65
				c-1.63-0.8-2.49-2.14-2.51-3.94c-0.03-2.89-0.01-5.79-0.01-8.68c0-0.6,0.42-1.06,0.96-1.06c0.54-0.01,0.97,0.43,0.98,1.05
				C2.18,5.85,2.17,6.93,2.17,8C2.17,8.69,2.17,9.37,2.17,10.07z"/>
		</g>
	</g>
	<g>
		<path class="st0" d="M54.19,13.12h7.99c2.4,0,4.33,0.49,5.8,1.46c1.46,0.97,2.19,2.25,2.19,3.84c0,1.03-0.31,1.94-0.94,2.73
			c-0.63,0.79-1.51,1.41-2.64,1.86l4.36,7.86h-5.22l-3.96-7.1h-2.77v7.1h-4.82V13.12z M61.8,21.75c1,0,1.8-0.3,2.4-0.91
			c0.6-0.61,0.9-1.41,0.9-2.41c0-0.98-0.3-1.77-0.9-2.37c-0.6-0.6-1.39-0.9-2.37-0.9h-2.82v6.6H61.8z"/>
		<path class="st0" d="M73.24,30.88V13.12h13.72v2.03h-8.9v5.71h7.64v2.03h-7.64v5.96h8.9v2.03H73.24z"/>
		<path class="st0" d="M95.49,24.03c-1.07-0.34-1.98-0.68-2.74-1.03c-0.76-0.35-1.46-0.76-2.11-1.23c-0.64-0.47-1.13-1.01-1.46-1.62
			c-0.33-0.61-0.5-1.28-0.5-2.03c0-1.57,0.69-2.84,2.06-3.8s3.17-1.45,5.4-1.45c2.23,0,4.01,0.49,5.34,1.46
			c1.33,0.97,1.99,2.26,1.99,3.87h-4.95c0-1.17-0.26-2.09-0.79-2.78c-0.52-0.68-1.27-1.03-2.23-1.03c-0.73,0-1.33,0.19-1.8,0.58
			c-0.47,0.39-0.71,0.89-0.71,1.5c0,0.73,0.37,1.34,1.1,1.85c0.74,0.51,1.86,1,3.36,1.47c0.8,0.25,1.51,0.52,2.14,0.8
			c0.63,0.28,1.32,0.65,2.04,1.12c0.73,0.47,1.3,1.04,1.71,1.73c0.41,0.68,0.62,1.45,0.62,2.3c0,1.61-0.73,2.91-2.19,3.91
			c-1.46,1-3.38,1.5-5.75,1.5c-2.33,0-4.2-0.49-5.59-1.46c-1.39-0.97-2.09-2.26-2.09-3.87h4.95c0,1.17,0.3,2.09,0.9,2.78
			c0.6,0.68,1.43,1.03,2.5,1.03c0.86,0,1.57-0.21,2.13-0.62c0.56-0.41,0.84-0.94,0.84-1.58C99.67,26.1,98.28,24.98,95.49,24.03z"/>
		<path class="st0" d="M115.28,15.15v15.73h-4.82V15.15h-5.83v-2.03h16.49v2.03H115.28z"/>
		<path class="st0" d="M119.97,30.88l7.99-17.76h2.51l7.97,17.76h-5l-1.73-3.85h-7.51l-1.73,3.85H119.97z M131.03,25.5l-3.07-6.8
			l-3.07,6.8H131.03z"/>
		<path class="st0" d="M144.53,13.12v10.91c0,1.32,0.43,2.39,1.28,3.21c0.85,0.82,1.97,1.23,3.36,1.23c1.39,0,2.5-0.41,3.35-1.23
			c0.85-0.82,1.27-1.89,1.27-3.21V13.12h2.28v10.81c0,2.15-0.75,3.88-2.26,5.21c-1.5,1.33-3.48,1.99-5.93,1.99s-4.43-0.66-5.92-1.98
			c-1.5-1.32-2.24-3.06-2.24-5.23V13.12H144.53z"/>
		<path class="st0" d="M159.24,13.12h7.99c2.4,0,4.33,0.49,5.8,1.46c1.46,0.97,2.19,2.25,2.19,3.84c0,1.03-0.31,1.94-0.94,2.73
			c-0.63,0.79-1.51,1.41-2.64,1.86l4.36,7.86h-5.22l-3.96-7.1h-2.77v7.1h-4.82V13.12z M166.85,21.75c1,0,1.8-0.3,2.4-0.91
			c0.6-0.61,0.9-1.41,0.9-2.41c0-0.98-0.3-1.77-0.9-2.37c-0.6-0.6-1.39-0.9-2.37-0.9h-2.82v6.6H166.85z"/>
		<path class="st0" d="M176.9,30.88l7.99-17.76h2.51l7.97,17.76h-5l-1.73-3.85h-7.51l-1.73,3.85H176.9z M187.96,25.5l-3.07-6.8
			l-3.07,6.8H187.96z"/>
		<path class="st0" d="M197.27,30.88V13.12h2.28l11.67,11.39V13.12h2.28v17.76h-2.28l-11.67-11.36v11.36H197.27z"/>
		<path class="st0" d="M226.45,15.15v15.73h-4.82V15.15h-5.83v-2.03h16.49v2.03H226.45z"/>
		<path class="st0" d="M240.3,24.03c-1.07-0.34-1.98-0.68-2.74-1.03c-0.76-0.35-1.46-0.76-2.11-1.23c-0.64-0.47-1.13-1.01-1.46-1.62
			c-0.33-0.61-0.5-1.28-0.5-2.03c0-1.57,0.69-2.84,2.06-3.8c1.37-0.96,3.17-1.45,5.4-1.45c2.23,0,4.01,0.49,5.34,1.46
			c1.33,0.97,1.99,2.26,1.99,3.87h-4.95c0-1.17-0.26-2.09-0.79-2.78s-1.27-1.03-2.23-1.03c-0.73,0-1.33,0.19-1.8,0.58
			c-0.47,0.39-0.71,0.89-0.71,1.5c0,0.73,0.37,1.34,1.1,1.85c0.74,0.51,1.86,1,3.36,1.47c0.8,0.25,1.51,0.52,2.14,0.8
			c0.63,0.28,1.32,0.65,2.04,1.12c0.73,0.47,1.3,1.04,1.71,1.73c0.41,0.68,0.62,1.45,0.62,2.3c0,1.61-0.73,2.91-2.19,3.91
			c-1.46,1-3.38,1.5-5.75,1.5c-2.33,0-4.2-0.49-5.59-1.46c-1.39-0.97-2.09-2.26-2.09-3.87h4.95c0,1.17,0.3,2.09,0.9,2.78
			c0.6,0.68,1.43,1.03,2.5,1.03c0.86,0,1.57-0.21,2.13-0.62c0.56-0.41,0.84-0.94,0.84-1.58C244.48,26.1,243.09,24.98,240.3,24.03z"
			/>
	</g>
</g>
</svg>
