<?xml version="1.0" encoding="utf-8"?>
<!-- Generator: Adobe Illustrator 25.0.0, SVG Export Plug-In . SVG Version: 6.00 Build 0)  -->
<svg version="1.1" id="Layer_1" xmlns="http://www.w3.org/2000/svg" xmlns:xlink="http://www.w3.org/1999/xlink" x="0px" y="0px"
	 viewBox="0 0 869.3 100" style="enable-background:new 0 0 869.3 100;" xml:space="preserve">
<style type="text/css">
	.st0{fill:#C2302D;}
	.st1{fill:#F5AE26;}
	.st2{fill:#FFFFFF;}
	.st3{fill:#EFC13A;}
	.st4{fill-rule:evenodd;clip-rule:evenodd;fill:#F0B638;}
	.st5{fill:#F0B638;}
	.st6{fill:none;stroke:#F0B638;stroke-width:0.5;stroke-miterlimit:10;}
	.st7{fill-rule:evenodd;clip-rule:evenodd;fill:#FEBE10;}
	.st8{fill-rule:evenodd;clip-rule:evenodd;fill:#0060A9;}
	.st9{fill-rule:evenodd;clip-rule:evenodd;fill:#ED1C2E;}
	.st10{fill-rule:evenodd;clip-rule:evenodd;fill:#FFFFFF;}
</style>
<g>
	<g>
		<polygon class="st0" points="357.1,16.2 356.6,16.3 356.2,16.3 355.9,16.4 355.5,16.5 355.1,16.7 354.8,16.8 354.5,17.1 
			354.1,17.3 353.9,17.5 353.6,17.8 353.4,18.1 353.2,18.5 353,18.8 352.8,19.2 352.7,19.5 352.6,19.9 352.6,20.3 352.5,20.7 
			352.5,20.7 352.5,20.7 352.5,20.8 352.5,20.8 352.5,20.9 352.5,20.9 352.5,21 352.5,21.1 352.5,21.2 352.5,21.4 352.5,21.5 
			352.5,21.7 352.5,21.8 352.5,22 352.5,22.2 352.5,22.4 352.5,22.6 352.5,22.9 352.5,23.1 352.5,23.4 352.5,23.6 352.5,23.9 
			352.5,24.2 352.5,24.5 352.5,24.9 352.5,25.2 352.5,25.5 352.5,25.9 352.5,26.2 352.5,26.6 352.5,27 352.5,27.4 352.5,27.8 
			352.5,28.2 352.5,28.6 352.5,29 352.5,29.4 352.5,29.9 352.5,30.3 352.5,30.8 352.5,31.2 352.5,31.7 352.5,32.2 352.5,32.7 
			352.5,33.2 352.5,33.7 352.5,34.2 352.5,34.7 352.5,35.2 352.5,35.7 352.5,36.3 352.5,36.8 352.5,37.3 352.5,37.9 352.5,38.4 
			352.5,39 352.5,39.5 352.5,40.1 352.5,40.7 352.5,41.2 352.5,41.8 352.5,42.4 352.5,42.9 352.5,43.5 352.5,44.1 352.5,44.7 
			352.5,45.3 352.5,45.9 352.5,46.4 352.5,47 352.5,47.6 352.5,48.2 352.5,48.8 352.5,49.4 352.5,50 352.5,50.6 352.5,51.2 
			352.5,51.8 352.5,52.4 352.5,53 352.5,53.6 352.5,54.1 352.5,54.7 352.5,55.3 352.5,55.9 352.5,56.5 352.5,57.1 352.5,57.6 
			352.5,58.2 352.5,58.8 352.5,59.3 352.5,59.9 352.5,60.5 352.5,61 352.5,61.6 352.5,62.1 352.5,62.7 352.5,63.2 352.5,63.7 
			352.5,64.3 352.5,64.8 352.5,65.3 352.5,65.8 352.5,66.3 352.5,66.8 352.5,67.3 352.5,67.8 352.5,68.3 352.5,68.8 352.5,69.2 
			352.5,69.7 352.5,70.1 352.5,70.6 352.5,71 352.5,71.4 352.5,71.8 352.5,72.2 352.5,72.6 352.5,73 352.5,73.4 352.5,73.8 
			352.5,74.1 352.5,74.5 352.5,74.8 352.5,75.1 352.5,75.5 352.5,75.8 352.5,76.1 352.5,76.4 352.5,76.6 352.5,76.9 352.5,77.1 
			352.5,77.4 352.5,77.6 352.5,77.8 352.5,78 352.5,78.2 352.5,78.3 352.5,78.5 352.5,78.6 352.5,78.8 352.5,78.9 352.5,79 
			352.5,79.1 352.5,79.1 352.5,79.2 352.5,79.2 352.5,79.3 352.5,79.3 352.5,79.3 352.6,79.7 352.6,80.1 352.7,80.5 352.8,80.8 
			353,81.2 353.2,81.5 353.4,81.9 353.6,82.2 353.9,82.5 354.1,82.7 354.5,82.9 354.8,83.2 355.1,83.3 355.5,83.5 355.9,83.6 
			356.2,83.7 356.6,83.7 357.1,83.8 357.1,83.8 357.1,83.8 357.1,83.8 357.1,83.8 357.1,83.8 357.2,83.8 357.3,83.8 357.3,83.8 
			357.4,83.8 357.5,83.8 357.6,83.8 357.7,83.8 357.9,83.8 358,83.8 358.1,83.8 358.3,83.8 358.5,83.8 358.6,83.8 358.8,83.8 
			359,83.8 359.2,83.8 359.4,83.8 359.7,83.8 359.9,83.8 360.1,83.8 360.4,83.8 360.7,83.8 360.9,83.8 361.2,83.8 361.5,83.8 
			361.8,83.8 362.1,83.8 362.4,83.8 362.7,83.8 363,83.8 363.4,83.8 363.7,83.8 364.1,83.8 364.4,83.8 364.8,83.8 365.2,83.8 
			365.5,83.8 365.9,83.8 366.3,83.8 366.7,83.8 367.1,83.8 367.5,83.8 368,83.8 368.4,83.8 368.8,83.8 369.2,83.8 369.7,83.8 
			370.1,83.8 370.6,83.8 371,83.8 371.5,83.8 372,83.8 372.5,83.8 372.9,83.8 373.4,83.8 373.9,83.8 374.4,83.8 374.9,83.8 
			375.4,83.8 375.9,83.8 376.4,83.8 377,83.8 377.5,83.8 378,83.8 378.5,83.8 379.1,83.8 379.6,83.8 380.2,83.8 380.7,83.8 
			381.2,83.8 381.8,83.8 382.3,83.8 382.9,83.8 383.5,83.8 384,83.8 384.6,83.8 385.2,83.8 385.7,83.8 386.3,83.8 386.9,83.8 
			387.4,83.8 388,83.8 388.6,83.8 389.2,83.8 389.8,83.8 390.3,83.8 390.9,83.8 391.5,83.8 392.1,83.8 392.7,83.8 393.3,83.8 
			393.9,83.8 394.5,83.8 395.1,83.8 395.6,83.8 396.2,83.8 396.8,83.8 397.4,83.8 398,83.8 398.6,83.8 399.2,83.8 399.8,83.8 
			400.4,83.8 401,83.8 401.6,83.8 402.1,83.8 402.7,83.8 403.3,83.8 403.9,83.8 404.5,83.8 405.1,83.8 405.6,83.8 406.2,83.8 
			406.8,83.8 407.4,83.8 407.9,83.8 408.5,83.8 409.1,83.8 409.7,83.8 410.2,83.8 410.8,83.8 411.3,83.8 411.9,83.8 412.5,83.8 
			413,83.8 413.5,83.8 414.1,83.8 414.6,83.8 415.2,83.8 415.7,83.8 416.2,83.8 416.8,83.8 417.3,83.8 417.8,83.8 418.3,83.8 
			418.8,83.8 419.3,83.8 419.8,83.8 420.3,83.8 420.8,83.8 421.3,83.8 421.8,83.8 422.3,83.8 422.7,83.8 423.2,83.8 423.6,83.8 
			424.1,83.8 424.6,83.8 425,83.8 425.4,83.8 425.9,83.8 426.3,83.8 426.7,83.8 427.1,83.8 427.5,83.8 427.9,83.8 428.3,83.8 
			428.7,83.8 429.1,83.8 429.5,83.8 429.8,83.8 430.2,83.8 430.5,83.8 430.9,83.8 431.2,83.8 431.5,83.8 431.8,83.8 432.1,83.8 
			432.4,83.8 432.7,83.8 433,83.8 433.3,83.8 433.6,83.8 433.8,83.8 434.1,83.8 434.3,83.8 434.6,83.8 434.8,83.8 435,83.8 
			435.2,83.8 435.4,83.8 435.6,83.8 435.8,83.8 435.9,83.8 436.1,83.8 436.2,83.8 436.4,83.8 436.5,83.8 436.6,83.8 436.7,83.8 
			436.8,83.8 436.9,83.8 437,83.8 437,83.8 437.1,83.8 437.1,83.8 437.2,83.8 437.2,83.8 437.2,83.8 437.2,83.8 437.6,83.7 
			438,83.7 438.4,83.6 438.8,83.5 439.1,83.3 439.5,83.2 439.8,82.9 440.1,82.7 440.4,82.5 440.6,82.2 440.9,81.9 441.1,81.5 
			441.3,81.2 441.4,80.8 441.5,80.5 441.6,80.1 441.7,79.7 441.7,79.3 441.7,79.3 441.7,79.3 441.7,79.2 441.7,79.2 441.7,79.1 
			441.7,79.1 441.7,79 441.7,78.9 441.7,78.8 441.7,78.6 441.7,78.5 441.7,78.3 441.7,78.2 441.7,78 441.7,77.8 441.7,77.6 
			441.7,77.4 441.7,77.1 441.7,76.9 441.7,76.6 441.7,76.4 441.7,76.1 441.7,75.8 441.7,75.5 441.7,75.1 441.7,74.8 441.7,74.5 
			441.7,74.1 441.7,73.8 441.7,73.4 441.7,73 441.7,72.6 441.7,72.2 441.7,71.8 441.7,71.4 441.7,71 441.7,70.6 441.7,70.1 
			441.7,69.7 441.7,69.2 441.7,68.8 441.7,68.3 441.7,67.8 441.7,67.3 441.7,66.8 441.7,66.3 441.7,65.8 441.7,65.3 441.7,64.8 
			441.7,64.3 441.7,63.7 441.7,63.2 441.7,62.7 441.7,62.1 441.7,61.6 441.7,61 441.7,60.5 441.7,59.9 441.7,59.3 441.7,58.8 
			441.7,58.2 441.7,57.6 441.7,57.1 441.7,56.5 441.7,55.9 441.7,55.3 441.7,54.7 441.7,54.1 441.7,53.6 441.7,53 441.7,52.4 
			441.7,51.8 441.7,51.2 441.7,50.6 441.7,50 441.7,49.4 441.7,48.8 441.7,48.2 441.7,47.6 441.7,47 441.7,46.4 441.7,45.9 
			441.7,45.3 441.7,44.7 441.7,44.1 441.7,43.5 441.7,42.9 441.7,42.4 441.7,41.8 441.7,41.2 441.7,40.7 441.7,40.1 441.7,39.5 
			441.7,39 441.7,38.4 441.7,37.9 441.7,37.3 441.7,36.8 441.7,36.3 441.7,35.7 441.7,35.2 441.7,34.7 441.7,34.2 441.7,33.7 
			441.7,33.2 441.7,32.7 441.7,32.2 441.7,31.7 441.7,31.2 441.7,30.8 441.7,30.3 441.7,29.9 441.7,29.4 441.7,29 441.7,28.6 
			441.7,28.2 441.7,27.8 441.7,27.4 441.7,27 441.7,26.6 441.7,26.2 441.7,25.9 441.7,25.5 441.7,25.2 441.7,24.9 441.7,24.5 
			441.7,24.2 441.7,23.9 441.7,23.6 441.7,23.4 441.7,23.1 441.7,22.9 441.7,22.6 441.7,22.4 441.7,22.2 441.7,22 441.7,21.8 
			441.7,21.7 441.7,21.5 441.7,21.4 441.7,21.2 441.7,21.1 441.7,21 441.7,20.9 441.7,20.9 441.7,20.8 441.7,20.8 441.7,20.7 
			441.7,20.7 441.7,20.7 441.7,20.3 441.6,19.9 441.5,19.5 441.4,19.2 441.3,18.8 441.1,18.5 440.9,18.1 440.6,17.8 440.4,17.5 
			440.1,17.3 439.8,17.1 439.5,16.8 439.1,16.7 438.8,16.5 438.4,16.4 438,16.3 437.6,16.3 437.2,16.2 437.2,16.2 437.2,16.2 
			437.2,16.2 437.1,16.2 437.1,16.2 437,16.2 437,16.2 436.9,16.2 436.8,16.2 436.7,16.2 436.6,16.2 436.5,16.2 436.4,16.2 
			436.2,16.2 436.1,16.2 435.9,16.2 435.8,16.2 435.6,16.2 435.4,16.2 435.2,16.2 435,16.2 434.8,16.2 434.6,16.2 434.3,16.2 
			434.1,16.2 433.8,16.2 433.6,16.2 433.3,16.2 433,16.2 432.7,16.2 432.4,16.2 432.1,16.2 431.8,16.2 431.5,16.2 431.2,16.2 
			430.9,16.2 430.5,16.2 430.2,16.2 429.8,16.2 429.5,16.2 429.1,16.2 428.7,16.2 428.3,16.2 427.9,16.2 427.5,16.2 427.1,16.2 
			426.7,16.2 426.3,16.2 425.9,16.2 425.4,16.2 425,16.2 424.6,16.2 424.1,16.2 423.6,16.2 423.2,16.2 422.7,16.2 422.3,16.2 
			421.8,16.2 421.3,16.2 420.8,16.2 420.3,16.2 419.8,16.2 419.3,16.2 418.8,16.2 418.3,16.2 417.8,16.2 417.3,16.2 416.8,16.2 
			416.2,16.2 415.7,16.2 415.2,16.2 414.6,16.2 414.1,16.2 413.5,16.2 413,16.2 412.5,16.2 411.9,16.2 411.3,16.2 410.8,16.2 
			410.2,16.2 409.7,16.2 409.1,16.2 408.5,16.2 407.9,16.2 407.4,16.2 406.8,16.2 406.2,16.2 405.6,16.2 405.1,16.2 404.5,16.2 
			403.9,16.2 403.3,16.2 402.7,16.2 402.1,16.2 401.6,16.2 401,16.2 400.4,16.2 399.8,16.2 399.2,16.2 398.6,16.2 398,16.2 
			397.4,16.2 396.8,16.2 396.2,16.2 395.6,16.2 395.1,16.2 394.5,16.2 393.9,16.2 393.3,16.2 392.7,16.2 392.1,16.2 391.5,16.2 
			390.9,16.2 390.3,16.2 389.8,16.2 389.2,16.2 388.6,16.2 388,16.2 387.4,16.2 386.9,16.2 386.3,16.2 385.7,16.2 385.2,16.2 
			384.6,16.2 384,16.2 383.5,16.2 382.9,16.2 382.3,16.2 381.8,16.2 381.2,16.2 380.7,16.2 380.2,16.2 379.6,16.2 379.1,16.2 
			378.5,16.2 378,16.2 377.5,16.2 377,16.2 376.4,16.2 375.9,16.2 375.4,16.2 374.9,16.2 374.4,16.2 373.9,16.2 373.4,16.2 
			372.9,16.2 372.5,16.2 372,16.2 371.5,16.2 371,16.2 370.6,16.2 370.1,16.2 369.7,16.2 369.2,16.2 368.8,16.2 368.4,16.2 
			368,16.2 367.5,16.2 367.1,16.2 366.7,16.2 366.3,16.2 365.9,16.2 365.5,16.2 365.2,16.2 364.8,16.2 364.4,16.2 364.1,16.2 
			363.7,16.2 363.4,16.2 363,16.2 362.7,16.2 362.4,16.2 362.1,16.2 361.8,16.2 361.5,16.2 361.2,16.2 360.9,16.2 360.7,16.2 
			360.4,16.2 360.1,16.2 359.9,16.2 359.7,16.2 359.4,16.2 359.2,16.2 359,16.2 358.8,16.2 358.6,16.2 358.5,16.2 358.3,16.2 
			358.1,16.2 358,16.2 357.9,16.2 357.7,16.2 357.6,16.2 357.5,16.2 357.4,16.2 357.3,16.2 357.3,16.2 357.2,16.2 357.1,16.2 
			357.1,16.2 357.1,16.2 357.1,16.2 357.1,16.2 		"/>
		<polygon class="st1" points="390.2,46.7 390.3,46.4 390.3,46.1 390.4,45.7 390.4,45.4 390.5,45 390.6,44.7 390.6,44.3 390.7,44 
			390.7,43.6 390.8,43.2 390.9,42.9 390.9,42.5 391,42.1 391.1,41.7 391.2,41.3 391.3,41 391.3,40.6 391.4,40.2 391.5,39.8 
			391.6,39.4 391.7,39 391.8,38.6 391.9,38.2 392,37.8 392.1,37.4 392.2,37 392.3,36.6 392.4,36.2 392.5,35.8 392.7,35.4 392.8,35 
			392.9,34.6 393,34.2 393.1,33.8 393.3,33.4 393.4,33.1 393.5,32.7 393.7,32.3 393.8,31.9 394,31.5 394.1,31.1 394.3,30.8 
			394.4,30.4 394.6,30 394.7,29.7 394.9,29.3 395,29 395.2,28.6 395.4,28.3 395.6,28 395.7,27.6 395.9,27.3 396.1,27 396.3,26.7 
			396.4,26.4 396.6,26.1 396.8,25.8 397,25.5 397.2,25.3 397.4,25 397.6,24.7 397.8,24.5 398,24.2 398.2,24 398.4,23.8 398.7,23.6 
			398.9,23.4 399.1,23.2 399.3,23 399.6,22.8 399.8,22.6 400,22.5 400.3,22.3 400.5,22.2 400.7,22.1 401,22 401.2,21.9 401.5,21.8 
			401.8,21.7 402,21.7 402.3,21.6 402.5,21.6 402.8,21.6 403.1,21.6 403.1,21.6 403.2,21.6 403.4,21.6 403.6,21.6 403.7,21.6 
			403.9,21.6 404.1,21.7 404.2,21.7 404.4,21.8 404.5,21.8 404.7,21.9 404.9,22 405,22 405.2,22.1 405.4,22.2 405.5,22.3 
			405.7,22.4 405.9,22.5 406,22.6 406.2,22.7 406.4,22.8 406.5,22.9 406.7,23.1 406.9,23.2 407,23.3 407.2,23.5 407.4,23.6 
			407.5,23.8 407.7,24 407.8,24.1 408,24.3 408.2,24.5 408.3,24.7 408.5,24.9 408.7,25.1 408.8,25.3 409,25.5 409.2,25.7 
			409.3,25.9 409.5,26.1 409.6,26.3 409.8,26.6 410,26.8 410.1,27 410.3,27.3 410.5,27.5 410.6,27.8 410.8,28 410.9,28.3 
			411.1,28.6 411.3,28.8 411.4,29.1 411.6,29.4 411.7,29.7 411.9,29.9 412.1,30.2 412.2,30.5 412.4,30.8 412.5,31.1 412.7,31.4 
			412.8,31.7 413,32.1 413.1,32.4 413.3,32.7 413.4,33 413.6,33.3 413.7,33.7 413.9,34 414,34.3 414.2,34.7 414.3,35 414.5,35.4 
			414.6,35.7 414.8,36.1 414.9,36.4 415,36.8 415.2,37.2 415.3,37.5 415.5,37.9 415.6,38.3 415.7,38.7 415.9,39 416,39.4 
			416.2,39.8 416.3,40.2 416.4,40.6 416.6,41 416.7,41.4 416.8,41.8 417,42.2 417.1,42.6 417.2,43 417.3,43.4 417.5,43.8 
			417.6,44.2 417.7,44.6 417.8,45 417.9,45.4 418.1,45.9 418.2,46.3 418.3,46.7 418.4,47.1 418.5,47.6 418.6,48 418.8,48.4 
			418.9,48.9 419,49.3 419.1,49.7 419.2,50.2 419.3,50.6 419.4,51 419.5,51.5 419.6,51.9 419.7,52.4 419.8,52.8 419.9,53.3 
			420,53.7 420.1,54.2 420.2,54.6 420.3,55.1 420.3,55.5 420.4,56 420.5,56.4 420.6,56.9 420.7,57.3 420.8,57.8 420.8,58.3 
			420.9,58.7 421,59.2 421.1,59.6 421.1,60.1 421.2,60.6 421.3,61 421.3,61.5 421.4,61.9 421.5,62.4 421.5,62.9 421.6,63.3 
			421.6,63.8 421.7,64.3 421.8,64.7 421.8,65.2 421.9,65.7 421.9,66.1 422,66.6 422,67.1 422,67.5 422.1,68 422.1,68.4 422.1,68.9 
			422.2,69.4 422.2,69.8 422.2,70.3 422.3,70.8 422.3,71.2 422.3,71.7 422.3,72.1 422.4,72.6 422.4,73 422.4,73.5 422.4,74 
			422.4,74.4 422.4,74.9 422.4,75.3 422.4,75.8 422.4,76.2 422.4,76.2 422.4,76.2 422.2,76.2 421.9,76.2 421.5,76.2 421,76.2 
			420.5,76.2 419.9,76.2 419.3,76.2 418.7,76.2 418,76.2 417.4,76.2 416.7,76.2 416.2,76.2 415.6,76.2 415.2,76.2 414.8,76.2 
			414.5,76.2 414.3,76.2 414.2,76.2 414.2,76.2 414.2,75.7 414.2,75.1 414.2,74.5 414.2,74 414.2,73.4 414.2,72.8 414.2,72.3 
			414.2,71.7 414.1,71.2 414.1,70.6 414.1,70.1 414.1,69.5 414.1,69 414,68.4 414,67.9 414,67.3 413.9,66.8 413.9,66.2 413.9,65.7 
			413.9,65.2 413.8,64.6 413.8,64.1 413.7,63.5 413.7,63 413.6,62.5 413.6,61.9 413.6,61.4 413.5,60.9 413.5,60.4 413.4,59.9 
			413.4,59.3 413.3,58.8 413.2,58.3 413.2,57.8 413.1,57.3 413.1,56.8 413,56.3 412.9,55.8 412.9,55.3 412.8,54.8 412.8,54.3 
			412.7,53.8 412.6,53.3 412.5,52.8 412.5,52.4 412.4,51.9 412.3,51.4 412.3,50.9 412.2,50.5 412.1,50 412,49.5 412,49.1 
			411.9,48.6 411.8,48.2 411.7,47.7 411.6,47.3 411.5,46.8 411.5,46.4 411.4,46 411.3,45.5 411.2,45.1 411.1,44.7 411,44.3 
			410.9,43.8 410.8,43.4 410.7,43 410.7,42.6 410.6,42.2 410.5,41.8 410.4,41.4 410.3,41 410.2,40.6 410.1,40.3 410,39.9 
			409.9,39.5 409.8,39.1 409.7,38.8 409.6,38.4 409.5,38.1 409.4,37.7 409.3,37.4 409.2,37 409.1,36.7 409,36.4 408.9,36 
			408.8,35.7 408.7,35.4 408.6,35.1 408.5,34.8 408.4,34.5 408.3,34.2 408.2,33.9 408.1,33.6 407.9,33.3 407.8,33 407.7,32.8 
			407.6,32.5 407.5,32.2 407.4,32 407.3,31.8 407.2,31.5 407.1,31.3 407,31 406.9,30.8 406.8,30.6 406.7,30.4 406.6,30.2 406.4,30 
			406.3,29.8 406.2,29.6 406.1,29.4 406,29.2 405.9,29 405.8,28.9 405.7,28.7 405.6,28.6 405.5,28.4 405.4,28.3 405.3,28.1 
			405.2,28 405,27.9 404.9,27.8 404.8,27.7 404.7,27.6 404.6,27.5 404.5,27.4 404.4,27.3 404.3,27.2 404.2,27.2 404.1,27.1 404,27 
			403.9,27 403.8,26.9 403.7,26.9 403.6,26.9 403.5,26.9 403.4,26.9 403.3,26.9 403.3,26.9 403.2,26.9 403.1,26.9 403,26.9 
			402.8,26.9 402.7,26.9 402.6,27 402.5,27 402.4,27 402.3,27.1 402.2,27.1 402.1,27.2 402,27.3 401.9,27.3 401.8,27.4 401.7,27.5 
			401.6,27.6 401.5,27.7 401.4,27.8 401.2,27.9 401.1,28 401,28.1 400.9,28.2 400.8,28.3 400.7,28.5 400.6,28.6 400.5,28.8 
			400.4,28.9 400.3,29.1 400.2,29.2 400.1,29.4 400,29.6 399.9,29.7 399.8,29.9 399.7,30.1 399.6,30.3 399.5,30.5 399.4,30.7 
			399.3,30.9 399.2,31.1 399.2,31.3 399.1,31.6 399,31.8 398.9,32 398.8,32.3 398.7,32.5 398.6,32.8 398.5,33 398.4,33.3 
			398.3,33.6 398.2,33.8 398.2,34.1 398.1,34.4 398,34.7 397.9,35 397.8,35.3 397.7,35.6 397.7,35.9 397.6,36.2 397.5,36.6 
			397.4,36.9 397.3,37.2 397.3,37.6 397.2,37.9 397.1,38.3 397,38.6 397,39 396.9,39.3 396.8,39.7 396.7,40.1 396.7,40.5 
			396.6,40.8 396.5,41.3 396.4,41.6 396.4,42.1 396.3,42.5 396.3,42.9 396.2,43.3 396.1,43.7 396.1,44.2 396,44.6 395.9,45 
			395.9,45.5 395.8,45.9 395.8,46.4 395.7,46.8 395.6,47.3 395.6,47.8 395.5,48.3 395.5,48.8 395.4,49.2 395.4,49.7 395.3,50.2 
			395.3,50.7 395.2,51.2 395.2,51.8 395.1,52.3 395.1,52.8 395,53.3 395,53.9 395,54.4 394.9,55 394.9,55.5 394.8,56.1 394.8,56.6 
			394.8,57.2 394.7,57.8 394.7,58.4 394.7,58.9 394.6,59.5 394.6,60.1 394.6,60.7 394.6,61.3 394.5,61.9 394.5,62.5 394.5,63.2 
			394.5,63.8 394.5,64.4 394.4,65.1 394.4,65.7 394.4,66.4 394.4,67 394.4,67.7 394.4,68.3 394.4,69 394.4,69.7 394.4,70.3 
			394.3,71 394.3,71.7 394.3,72.4 394.3,73.1 394.3,73.1 394.3,73.1 394.1,73.1 393.8,73.1 393.4,73.1 392.9,73.1 392.4,73.1 
			391.8,73.1 391.2,73.1 390.6,73.1 389.9,73.1 389.3,73.1 388.7,73.1 388.1,73.1 387.5,73.1 387.1,73.1 386.7,73.1 386.4,73.1 
			386.2,73.1 386.1,73.1 386.1,73.1 386.1,72.4 386.1,71.7 386.1,71 386.1,70.3 386.1,69.7 386.1,69 386.1,68.3 386.1,67.7 
			386.1,67 386.1,66.4 386.1,65.7 386,65.1 386,64.4 386,63.8 386,63.2 386,62.5 385.9,61.9 385.9,61.3 385.9,60.7 385.9,60.1 
			385.8,59.5 385.8,58.9 385.8,58.4 385.7,57.8 385.7,57.2 385.7,56.6 385.6,56.1 385.6,55.5 385.6,55 385.5,54.4 385.5,53.9 
			385.4,53.3 385.4,52.8 385.3,52.3 385.3,51.8 385.3,51.2 385.2,50.7 385.2,50.2 385.1,49.7 385.1,49.2 385,48.8 385,48.3 
			384.9,47.8 384.9,47.3 384.8,46.8 384.7,46.4 384.7,45.9 384.6,45.5 384.6,45 384.5,44.6 384.4,44.2 384.4,43.7 384.3,43.3 
			384.2,42.9 384.2,42.5 384.1,42.1 384,41.6 384,41.3 383.9,40.8 383.8,40.5 383.8,40.1 383.7,39.7 383.6,39.3 383.5,39 
			383.5,38.6 383.4,38.3 383.3,37.9 383.2,37.6 383.1,37.2 383.1,36.9 383,36.6 382.9,36.2 382.8,35.9 382.7,35.6 382.7,35.3 
			382.6,35 382.5,34.7 382.4,34.4 382.3,34.1 382.2,33.8 382.1,33.6 382.1,33.3 382,33 381.9,32.8 381.8,32.5 381.7,32.3 381.6,32 
			381.5,31.8 381.4,31.6 381.3,31.3 381.2,31.1 381.1,30.9 381,30.7 380.9,30.5 380.9,30.3 380.7,30.1 380.7,29.9 380.6,29.7 
			380.5,29.6 380.4,29.4 380.3,29.2 380.2,29.1 380.1,28.9 380,28.8 379.9,28.6 379.8,28.5 379.6,28.3 379.5,28.2 379.4,28.1 
			379.3,28 379.2,27.9 379.1,27.8 379,27.7 378.9,27.6 378.8,27.5 378.7,27.4 378.6,27.3 378.5,27.3 378.4,27.2 378.3,27.1 
			378.2,27.1 378.1,27 378,27 377.8,27 377.7,26.9 377.6,26.9 377.5,26.9 377.4,26.9 377.3,26.9 377.2,26.9 377.2,26.9 377.1,26.9 
			377,26.9 376.9,26.9 376.8,26.9 376.7,26.9 376.6,27 376.5,27 376.4,27.1 376.3,27.2 376.2,27.2 376.1,27.3 376,27.4 375.9,27.5 
			375.7,27.6 375.6,27.7 375.5,27.8 375.4,27.9 375.3,28 375.2,28.1 375.1,28.3 375,28.4 374.9,28.6 374.8,28.7 374.7,28.9 
			374.6,29 374.5,29.2 374.4,29.4 374.2,29.6 374.1,29.8 374,30 373.9,30.2 373.8,30.4 373.7,30.6 373.6,30.8 373.5,31 373.4,31.3 
			373.3,31.5 373.2,31.8 373.1,32 373,32.2 372.9,32.5 372.7,32.8 372.6,33.1 372.5,33.3 372.4,33.6 372.3,33.9 372.2,34.2 
			372.1,34.5 372,34.8 371.9,35.1 371.8,35.4 371.7,35.7 371.6,36 371.5,36.4 371.4,36.7 371.3,37 371.2,37.4 371.1,37.7 371,38.1 
			370.9,38.4 370.8,38.8 370.7,39.1 370.6,39.5 370.5,39.9 370.4,40.3 370.3,40.6 370.2,41 370.1,41.4 370,41.8 369.9,42.2 
			369.8,42.6 369.7,43 369.6,43.4 369.5,43.8 369.5,44.3 369.4,44.7 369.3,45.1 369.2,45.5 369.1,46 369,46.4 368.9,46.8 
			368.9,47.3 368.8,47.7 368.7,48.2 368.6,48.6 368.5,49.1 368.5,49.5 368.4,50 368.3,50.5 368.2,50.9 368.1,51.4 368.1,51.9 
			368,52.4 367.9,52.8 367.9,53.3 367.8,53.8 367.7,54.3 367.7,54.8 367.6,55.3 367.5,55.8 367.5,56.3 367.4,56.8 367.4,57.3 
			367.3,57.8 367.2,58.3 367.2,58.8 367.1,59.3 367.1,59.9 367,60.4 367,60.9 366.9,61.4 366.9,62 366.8,62.5 366.8,63 366.7,63.5 
			366.7,64.1 366.7,64.6 366.6,65.2 366.6,65.7 366.6,66.2 366.5,66.8 366.5,67.3 366.5,67.9 366.4,68.4 366.4,69 366.4,69.5 
			366.4,70.1 366.3,70.6 366.3,71.2 366.3,71.7 366.3,72.3 366.3,72.8 366.3,73.4 366.3,74 366.3,74.5 366.3,75.1 366.3,75.7 
			366.3,76.2 366.3,76.2 366.2,76.2 366,76.2 365.7,76.2 365.3,76.2 364.8,76.2 364.3,76.2 363.7,76.2 363.1,76.2 362.5,76.2 
			361.8,76.2 361.2,76.2 360.6,76.2 360,76.2 359.5,76.2 359,76.2 358.6,76.2 358.3,76.2 358.1,76.2 358,76.2 358,76.2 358,75.8 
			358.1,75.3 358.1,74.9 358.1,74.4 358.1,74 358.1,73.5 358.1,73 358.1,72.6 358.1,72.1 358.2,71.7 358.2,71.2 358.2,70.7 
			358.2,70.3 358.3,69.8 358.3,69.4 358.3,68.9 358.4,68.4 358.4,68 358.4,67.5 358.5,67 358.5,66.6 358.6,66.1 358.6,65.7 
			358.7,65.2 358.7,64.7 358.8,64.3 358.8,63.8 358.9,63.3 358.9,62.9 359,62.4 359.1,61.9 359.1,61.5 359.2,61 359.3,60.6 
			359.3,60.1 359.4,59.6 359.5,59.2 359.6,58.7 359.6,58.2 359.7,57.8 359.8,57.3 359.9,56.9 360,56.4 360.1,56 360.1,55.5 
			360.2,55.1 360.3,54.6 360.4,54.2 360.5,53.7 360.6,53.3 360.7,52.8 360.8,52.4 360.9,51.9 361,51.5 361.1,51 361.2,50.6 
			361.3,50.1 361.4,49.7 361.5,49.3 361.6,48.9 361.7,48.4 361.8,48 362,47.6 362.1,47.1 362.2,46.7 362.3,46.3 362.4,45.9 
			362.5,45.4 362.7,45 362.8,44.6 362.9,44.2 363,43.8 363.1,43.4 363.3,43 363.4,42.6 363.5,42.2 363.7,41.8 363.8,41.4 363.9,41 
			364.1,40.6 364.2,40.2 364.3,39.8 364.5,39.4 364.6,39 364.7,38.6 364.9,38.3 365,37.9 365.1,37.5 365.3,37.2 365.4,36.8 
			365.6,36.4 365.7,36.1 365.9,35.7 366,35.4 366.2,35 366.3,34.7 366.4,34.3 366.6,34 366.7,33.7 366.9,33.3 367,33 367.2,32.7 
			367.3,32.4 367.5,32.1 367.7,31.7 367.8,31.4 368,31.1 368.1,30.8 368.3,30.5 368.4,30.2 368.6,29.9 368.7,29.6 368.9,29.4 
			369.1,29.1 369.2,28.8 369.4,28.6 369.5,28.3 369.7,28 369.9,27.8 370,27.5 370.2,27.3 370.3,27 370.5,26.8 370.7,26.6 
			370.8,26.3 371,26.1 371.2,25.9 371.3,25.7 371.5,25.5 371.6,25.3 371.8,25.1 372,24.9 372.1,24.7 372.3,24.5 372.5,24.3 
			372.6,24.1 372.8,24 373,23.8 373.1,23.6 373.3,23.5 373.5,23.3 373.6,23.2 373.8,23.1 374,22.9 374.1,22.8 374.3,22.7 
			374.5,22.6 374.6,22.5 374.8,22.4 374.9,22.3 375.1,22.2 375.3,22.1 375.4,22 375.6,22 375.8,21.9 375.9,21.8 376.1,21.8 
			376.3,21.7 376.4,21.7 376.6,21.6 376.8,21.6 376.9,21.6 377.1,21.6 377.2,21.6 377.4,21.6 377.4,21.6 377.7,21.6 377.9,21.6 
			378.2,21.6 378.5,21.7 378.7,21.7 379,21.8 379.2,21.9 379.5,22 379.7,22.1 380,22.2 380.2,22.3 380.5,22.5 380.7,22.6 
			380.9,22.8 381.2,23 381.4,23.2 381.6,23.4 381.8,23.6 382,23.8 382.2,24 382.5,24.2 382.7,24.5 382.9,24.7 383.1,25 383.3,25.3 
			383.5,25.5 383.7,25.8 383.8,26.1 384,26.4 384.2,26.7 384.4,27 384.6,27.3 384.8,27.6 384.9,28 385.1,28.3 385.3,28.6 385.4,29 
			385.6,29.3 385.8,29.7 385.9,30 386.1,30.4 386.2,30.8 386.4,31.1 386.5,31.5 386.7,31.9 386.8,32.3 386.9,32.7 387.1,33.1 
			387.2,33.4 387.3,33.8 387.5,34.2 387.6,34.6 387.7,35 387.8,35.4 388,35.8 388.1,36.2 388.2,36.6 388.3,37 388.4,37.4 
			388.5,37.8 388.6,38.2 388.7,38.6 388.8,39 388.9,39.4 389,39.8 389.1,40.2 389.2,40.6 389.2,41 389.3,41.3 389.4,41.7 
			389.5,42.1 389.6,42.5 389.6,42.9 389.7,43.2 389.8,43.6 389.8,44 389.9,44.3 389.9,44.7 390,45 390.1,45.4 390.1,45.7 
			390.2,46.1 390.2,46.4 390.2,46.7 		"/>
		<polygon class="st0" points="384.9,66.3 384.9,56.7 422.7,56.7 422.7,66.3 		"/>
		<polygon class="st2" points="418.9,57.5 421.3,57.5 421.3,65.3 418.9,65.3 		"/>
		<polygon class="st2" points="430,57.5 431.6,57.5 431.1,59.6 429.9,59.6 		"/>
		<polygon class="st2" points="434.4,58.6 434.9,58.7 435.3,58.7 435.8,58.8 436.2,58.9 436.6,59 436.9,59.2 437.1,59.5 437.3,59.8 
			437.4,60.2 437.5,60.6 437.5,60.6 437.1,60.6 436.4,60.6 435.6,60.6 435.2,60.6 435.2,60.6 435.1,60.2 434.9,59.9 434.4,59.8 
			434.4,59.8 434.1,59.9 433.8,60.1 433.7,60.4 433.7,60.4 433.7,60.7 433.9,60.9 434.3,61.1 434.6,61.1 435.1,61.2 435.6,61.3 
			436,61.4 436,61.4 436.5,61.6 436.9,61.8 437.2,62.1 437.5,62.4 437.7,62.8 437.7,63.2 437.7,63.2 437.7,63.6 437.6,64 
			437.5,64.3 437.3,64.6 437,64.8 436.7,65 436.4,65.2 436,65.3 435.5,65.4 435,65.5 434.4,65.5 434.4,65.5 433.8,65.5 433.3,65.4 
			432.9,65.3 432.5,65.2 432.2,65 431.9,64.8 431.7,64.6 431.5,64.3 431.4,64 431.3,63.6 431.3,63.2 431.3,63.2 431.7,63.2 
			432.5,63.2 433.2,63.2 433.6,63.2 433.6,63.2 433.7,63.7 434,64 434.4,64.1 434.4,64.1 434.9,64 435.2,63.8 435.3,63.5 
			435.3,63.5 435.2,63.2 434.9,62.9 434.6,62.8 434.1,62.7 433.7,62.6 433.2,62.5 432.8,62.4 432.8,62.4 432.4,62.2 432.1,62 
			431.8,61.6 431.6,61.2 431.6,60.7 431.6,60.7 431.6,60.4 431.6,60.1 431.7,59.9 431.9,59.6 432.1,59.3 432.4,59.1 432.8,58.9 
			433.3,58.8 433.8,58.7 434.4,58.6 		"/>
		<polygon class="st2" points="385.7,62.9 385.6,63.3 385.4,63.7 385.2,64.1 384.9,64.4 384.7,64.7 384.3,64.9 384,65.1 383.6,65.3 
			383.2,65.4 382.8,65.5 382.4,65.5 382.4,65.5 382,65.5 381.6,65.4 381.2,65.3 380.9,65.2 380.5,65 380.2,64.8 380,64.5 
			379.7,64.2 379.5,63.9 379.3,63.5 379.2,63.2 379.1,62.8 379,62.4 379,61.9 379,61.9 379,61.5 379.1,61 379.2,60.6 379.3,60.3 
			379.5,59.9 379.7,59.6 379.9,59.3 380.2,59.1 380.5,58.8 380.8,58.6 381.2,58.5 381.5,58.4 382,58.3 382.4,58.3 382.4,58.3 
			382.9,58.3 383.3,58.4 383.7,58.5 384.1,58.7 384.4,58.9 384.7,59.1 385,59.4 385.2,59.7 385.4,60.1 385.6,60.5 385.7,60.9 
			385.7,60.9 385.4,60.9 384.6,60.9 383.8,60.9 383.5,60.9 383.5,60.9 383.3,60.4 382.9,60.2 382.4,60 382.4,60 382,60.1 
			381.6,60.3 381.4,60.7 381.3,61.1 381.2,61.5 381.2,61.9 381.2,61.9 381.2,62.3 381.3,62.8 381.4,63.1 381.6,63.5 382,63.7 
			382.4,63.8 382.4,63.8 382.9,63.6 383.2,63.4 383.5,62.9 383.5,62.9 383.8,62.9 384.6,62.9 385.3,62.9 385.7,62.9 		"/>
		<polygon class="st2" points="369.3,57.5 372.1,57.5 373.4,62.1 374.6,57.5 377.4,57.5 378.7,65.5 376.3,65.5 375.7,60.8 
			374.4,65.5 372.3,65.5 371,60.8 370.4,65.5 368,65.5 		"/>
		<polygon class="st2" points="405.7,61.5 405.7,61.7 405.7,62.2 405.7,62.8 405.7,63.5 405.7,64.2 405.7,64.8 405.7,65.2 
			405.7,65.3 405.7,65.3 403.4,65.3 403.4,58.5 405.7,58.5 405.7,58.5 405.7,58.6 405.7,58.9 405.7,59 405.7,59 406.1,58.8 
			406.5,58.6 406.9,58.4 407.4,58.3 408.1,58.3 408.1,58.3 408.6,58.3 409,58.5 409.4,58.6 409.8,58.9 410.1,59.1 410.3,59.4 
			410.4,59.8 410.5,60.1 410.5,60.1 410.5,60.2 410.5,60.5 410.5,60.9 410.5,61.5 410.5,62.1 410.5,62.7 410.5,63.4 410.5,64 
			410.5,64.5 410.5,64.9 410.5,65.2 410.5,65.3 410.5,65.3 408.1,65.3 408.1,65.3 408.1,65.1 408.1,64.7 408.1,64.1 408.1,63.4 
			408.1,62.7 408.1,62.1 408.1,61.7 408.1,61.5 408.1,61.5 408,61.1 407.8,60.7 407.4,60.5 406.9,60.4 406.9,60.4 406.3,60.6 
			405.9,61 405.7,61.5 		"/>
		<path class="st2" d="M426.7,59.2v-0.4v-0.8v-0.4l0,0h2.4v7.8h-2.4l0,0v-0.1V65v-0.1l0,0l-0.4,0.3l-0.5,0.2l-0.8,0.1l0,0l-0.3,0
			l-0.3,0l-0.3-0.1l-0.3-0.1l-0.3-0.1l-0.3-0.2l-0.3-0.2l-0.3-0.3l-0.2-0.3l-0.2-0.4l-0.1-0.5l-0.1-0.5l0-0.6l0,0l0-0.6l0.1-0.5
			l0.1-0.4l0.2-0.4l0.2-0.3l0.2-0.3l0.3-0.2l0.3-0.2l0.3-0.2l0.3-0.1l0.3-0.1l0.3-0.1l0.3,0l0.3,0l0,0l0.8,0.1l0.5,0.2L426.7,59.2
			L426.7,59.2L426.7,59.2z M424.3,62.1l0.1,0.6l0.2,0.5l0.3,0.4l0.4,0.2l0.5,0.1l0,0l0.5-0.1l0.4-0.2l0.3-0.4l0,0v-0.3v-0.7v-0.7
			v-0.3l0,0l-0.2-0.4l-0.4-0.3l-0.5-0.1l0,0l-0.5,0.1l-0.4,0.2l-0.3,0.4l-0.2,0.5L424.3,62.1L424.3,62.1L424.3,62.1z"/>
		<path class="st2" d="M395.5,61.9l0-0.4l0-0.4l0.1-0.4l0.1-0.4l0.2-0.3l0.2-0.3l0.2-0.3l0.3-0.3l0.3-0.2l0.3-0.2l0.3-0.2l0.4-0.1
			l0.4-0.1l0.4-0.1l0.4,0l0,0l0.4,0l0.4,0.1l0.4,0.1l0.4,0.1l0.3,0.2l0.3,0.2l0.3,0.2l0.2,0.3l0.2,0.3l0.2,0.3l0.1,0.3l0.1,0.4
			l0.1,0.4l0.1,0.4l0,0.4l0,0l0,0.4l-0.1,0.4l-0.1,0.4l-0.1,0.4l-0.2,0.3l-0.2,0.3l-0.2,0.3l-0.2,0.3l-0.3,0.2L401,65l-0.3,0.2
			l-0.4,0.1l-0.4,0.1l-0.4,0.1l-0.4,0l0,0l-0.4,0l-0.4-0.1l-0.4-0.1l-0.4-0.1l-0.3-0.2l-0.3-0.2l-0.3-0.2l-0.3-0.3l-0.2-0.3
			l-0.2-0.3l-0.2-0.3l-0.1-0.4l-0.1-0.4l0-0.4L395.5,61.9L395.5,61.9L395.5,61.9z M400.4,61.9l0-0.4l-0.1-0.4l-0.2-0.4l-0.3-0.3
			l-0.4-0.2l-0.5-0.1l0,0l-0.5,0.1l-0.4,0.2l-0.3,0.3l-0.2,0.4l-0.1,0.4l0,0.4l0,0l0,0.4l0.1,0.4l0.2,0.4l0.3,0.3l0.4,0.2l0.5,0.1
			l0,0l0.5-0.1l0.4-0.2l0.3-0.3l0.2-0.4l0.1-0.4L400.4,61.9L400.4,61.9L400.4,61.9z"/>
		<path class="st2" d="M386.5,57.5h0.1h0.4h0.5h0.6h0.7h0.6h0.5h0.4h0.1l0,0l0.4,0l0.4,0.1l0.4,0.1l0.4,0.1l0.4,0.1L393,58l0.3,0.2
			l0.3,0.2l0.3,0.3l0.2,0.3l0.2,0.3l0.2,0.3l0.1,0.3l0.1,0.4l0.1,0.4l0.1,0.4l0,0.4l0,0l0,0.4l-0.1,0.4l-0.1,0.4l-0.1,0.4l-0.1,0.3
			l-0.2,0.3l-0.2,0.3l-0.2,0.3l-0.3,0.3l-0.3,0.2l-0.3,0.2l-0.3,0.2l-0.4,0.1l-0.4,0.1l-0.4,0.1l-0.4,0l-0.4,0l0,0h-0.1h-0.4h-0.5
			h-0.6h-0.7h-0.6H387h-0.4h-0.1l0,0V57.5L386.5,57.5z M389.2,63.6h0.3h0.6h0.3l0,0l0.4,0l0.4-0.1l0.3-0.2l0.3-0.3l0.2-0.4l0.1-0.5
			l0.1-0.6l0,0l-0.1-0.6l-0.1-0.5l-0.2-0.4l-0.3-0.3l-0.3-0.2l-0.4-0.1l-0.4,0l0,0h-0.3h-0.6h-0.3l0,0V63.6L389.2,63.6z"/>
		<path class="st2" d="M414.7,58.3l0.5,0l0.5,0.1l0.5,0.1l0.4,0.1l0.4,0.2l0.3,0.2l0.3,0.3l0.2,0.3l0.1,0.3l0.1,0.4l0,0v0.1v0.3v0.5
			v0.6v0.7v0.7v0.7v0.6v0.5v0.3v0.1l0,0h-2.4l0,0v-0.2v-0.3v-0.2l0,0l-0.4,0.3l-0.4,0.2l-0.4,0.2l-0.5,0.1l-0.6,0l0,0l-0.4,0
			l-0.4-0.1l-0.4-0.2l-0.3-0.3l-0.3-0.3l-0.2-0.3l-0.1-0.4l0-0.4l0,0l0-0.3l0-0.3l0.1-0.3l0.1-0.3l0.2-0.3l0.2-0.2l0.3-0.2l0.4-0.2
			l0.4-0.1l0.5-0.1l0.6-0.1l0.7,0l0,0l0.6-0.1l0.3-0.2l0.1-0.3l0,0l-0.1-0.3l-0.3-0.2l-0.4-0.1l0,0l-0.4,0.1l-0.3,0.2l-0.1,0.3l0,0
			h-0.3h-0.8h-0.8h-0.4l0,0l0-0.3l0.1-0.3l0.1-0.3l0.1-0.3l0.2-0.2l0.3-0.2l0.3-0.2l0.4-0.2l0.5-0.1l0.5-0.1L414.7,58.3L414.7,58.3
			L414.7,58.3z M414.6,62.2l-0.5,0.1l-0.4,0.3l-0.1,0.5l0,0l0.1,0.3l0.3,0.2l0.4,0.1l0,0l0.5-0.1l0.4-0.3l0.3-0.6l0,0v-0.2v-0.3
			v-0.2l0,0l-0.3,0.1l-0.3,0L414.6,62.2L414.6,62.2L414.6,62.2z"/>
		<path class="st1" d="M426.1,70.9h0.4h0.7h0.4l0,0l0.6,0.1l0.4,0.3l0.2,0.5l0,0l-0.1,0.4l-0.3,0.3l-0.4,0.1l0,0l0,0v0l0,0l0,0
			l0.5,0.3l0.2,0.5l0.1,0.6l0,0h-0.2h-0.3h-0.2l0,0l-0.1-0.6l-0.3-0.4l-0.5-0.1l0,0H427h-0.3h-0.1l0,0V74h-0.6L426.1,70.9
			L426.1,70.9z M426.7,72.4h0.2h0.3h0.2l0,0l0.4-0.1l0.3-0.2l0.1-0.3l0,0l-0.1-0.2l-0.2-0.2l-0.4-0.1l0,0h-0.2h-0.4h-0.2l0,0V72.4
			L426.7,72.4z M427.3,69.8l0.4,0l0.4,0.1l0.4,0.2l0.3,0.2l0.3,0.3l0.3,0.3l0.2,0.3l0.2,0.4l0.1,0.4l0,0.4l0,0l0,0.4l-0.1,0.4
			l-0.2,0.4l-0.2,0.4l-0.3,0.3l-0.3,0.3l-0.3,0.2l-0.4,0.2l-0.4,0.1l-0.4,0l0,0l-0.4,0l-0.4-0.1l-0.4-0.2l-0.4-0.2l-0.3-0.3
			l-0.3-0.3l-0.2-0.4l-0.2-0.4l-0.1-0.4l0-0.4l0,0l0-0.4l0.1-0.4l0.2-0.4l0.2-0.3l0.3-0.3l0.3-0.3l0.4-0.2l0.4-0.2l0.4-0.1
			L427.3,69.8L427.3,69.8L427.3,69.8z M427.3,74.9l0.4,0l0.4-0.1l0.4-0.2l0.3-0.2l0.3-0.3l0.2-0.3l0.2-0.4l0.1-0.4l0-0.4l0,0l0-0.4
			l-0.1-0.4l-0.2-0.4l-0.2-0.3l-0.3-0.3l-0.3-0.2l-0.4-0.2l-0.4-0.1l-0.4,0l0,0l-0.4,0l-0.4,0.1l-0.4,0.2l-0.3,0.2l-0.3,0.3
			l-0.2,0.3l-0.2,0.4l-0.1,0.4l0,0.4l0,0l0,0.4l0.1,0.4l0.2,0.4l0.2,0.3l0.3,0.3l0.3,0.2l0.4,0.2l0.4,0.1L427.3,74.9L427.3,74.9
			L427.3,74.9z"/>
	</g>
	<g>
		<g>
			<g>
				<path class="st3" d="M615.8,83.3c-6.5,0-13,0-19.5,0c0-15.5,0-31,0-46.4c0-0.1,0-0.3,0-0.4c19.5,0,38.9,0,58.3,0
					c0,0.3,0,0.6,0,0.9c0,15.3,0,30.7,0,46c-6.5,0-13,0-19.5,0c0-5.2,0-10.5,0-15.7c-6.5,0-13,0-19.5,0
					C615.8,72.8,615.8,78,615.8,83.3z M611.8,44.2c-2.6,0-5.2,0-7.7,0c0,1.3,0,2.6,0,3.8c2.6,0,5.2,0,7.7,0
					C611.8,46.7,611.8,45.5,611.8,44.2z M615.8,48c2.6,0,5.2,0,7.7,0c0-1.3,0-2.5,0-3.8c-2.6,0-5.1,0-7.7,0
					C615.8,45.5,615.8,46.7,615.8,48z M635.2,44.2c-2.6,0-5.2,0-7.7,0c0,1.3,0,2.6,0,3.8c2.6,0,5.2,0,7.7,0
					C635.2,46.7,635.2,45.5,635.2,44.2z M639.2,44.2c0,1.3,0,2.6,0,3.8c2.6,0,5.2,0,7.7,0c0-1.3,0-2.6,0-3.8
					C644.3,44.2,641.7,44.2,639.2,44.2z M611.8,55.8c0-1.3,0-2.6,0-3.8c-2.6,0-5.2,0-7.7,0c0,1.3,0,2.6,0,3.8
					C606.7,55.8,609.3,55.8,611.8,55.8z M623.5,52c-2.6,0-5.2,0-7.7,0c0,1.3,0,2.6,0,3.8c2.6,0,5.1,0,7.7,0
					C623.5,54.5,623.5,53.3,623.5,52z M627.5,52c0,1.3,0,2.6,0,3.8c2.6,0,5.2,0,7.7,0c0-1.3,0-2.6,0-3.8C632.6,52,630,52,627.5,52z
					 M639.1,55.8c2.6,0,5.2,0,7.7,0c0-1.3,0-2.5,0-3.8c-2.6,0-5.2,0-7.7,0C639.1,53.3,639.1,54.5,639.1,55.8z M611.8,63.6
					c0-1.3,0-2.6,0-3.8c-2.6,0-5.2,0-7.7,0c0,1.3,0,2.6,0,3.8C606.7,63.6,609.2,63.6,611.8,63.6z M615.8,59.8c0,1.3,0,2.6,0,3.8
					c2.6,0,5.2,0,7.7,0c0-1.3,0-2.6,0-3.8C620.9,59.8,618.3,59.8,615.8,59.8z M627.5,63.6c2.6,0,5.2,0,7.7,0c0-1.3,0-2.6,0-3.8
					c-2.6,0-5.2,0-7.7,0C627.5,61.1,627.5,62.3,627.5,63.6z M646.9,59.8c-2.6,0-5.2,0-7.7,0c0,1.3,0,2.6,0,3.8c2.6,0,5.2,0,7.7,0
					C646.9,62.3,646.9,61.1,646.9,59.8z M611.8,71.4c0-1.3,0-2.6,0-3.8c-2.6,0-5.2,0-7.7,0c0,1.3,0,2.6,0,3.8
					C606.7,71.4,609.3,71.4,611.8,71.4z M639.1,71.4c2.6,0,5.2,0,7.7,0c0-1.3,0-2.6,0-3.8c-2.6,0-5.2,0-7.7,0
					C639.1,68.9,639.1,70.1,639.1,71.4z"/>
				<path class="st3" d="M619.7,83.3c0-3.9,0-7.8,0-11.8c1.3,0,2.6,0,3.9,0c0,3.9,0,7.9,0,11.8C622.2,83.3,621,83.3,619.7,83.3z"/>
				<path class="st3" d="M627.4,83.3c0-3.9,0-7.8,0-11.8c1.3,0,2.6,0,3.9,0c0,3.9,0,7.9,0,11.8C630,83.3,628.7,83.3,627.4,83.3z"/>
				<path class="st3" d="M612.3,34.2c-1.8-0.9-3.5-1.8-5.1-2.7c-0.4-0.2-0.7-0.2-1.1,0c-1.7,0.9-3.4,1.8-5.1,2.7
					c0.3-1.5,0.4-3,0.8-4.4c0.4-1.4,0.1-2.4-1-3.3c-1.1-0.9-2-2.1-3-3.2c1.8-0.3,3.6-0.5,5.5-0.8c0.5-0.1,0.7-0.2,0.9-0.6
					c0.7-1.5,1.5-3,2.2-4.5c0.1-0.2,0.2-0.4,0.3-0.6c0.9,1.8,1.7,3.4,2.5,5.2c0.2,0.4,0.5,0.6,1,0.7c1.8,0.2,3.7,0.5,5.6,0.8
					c-0.1,0.2-0.2,0.3-0.3,0.4c-1.2,1.2-2.5,2.4-3.7,3.6c-0.3,0.3-0.4,0.6-0.4,1.1C611.6,30.4,611.9,32.2,612.3,34.2z"/>
				<path class="st3" d="M631.7,34.2c-1.6-0.9-3.2-1.6-4.7-2.5c-0.7-0.4-1.2-0.4-1.9,0c-1.5,0.9-3.1,1.6-4.7,2.5
					c0.2-1.3,0.4-2.4,0.6-3.5c0.1-0.4,0.1-0.9,0.2-1.3c0.4-1.1,0-1.8-0.8-2.6c-1.2-1.1-2.2-2.3-3.2-3.4c1.4-0.2,3-0.5,4.5-0.6
					c1.2-0.1,1.8-0.5,2.2-1.6c0.6-1.5,1.4-2.9,2.1-4.4c0.8,1.6,1.6,3.1,2.3,4.7c0.3,0.8,0.7,1.2,1.6,1.2c1.7,0.2,3.4,0.5,5.2,0.7
					c-0.1,0.2-0.2,0.3-0.3,0.4c-1.3,1.2-2.5,2.5-3.8,3.7c-0.3,0.3-0.4,0.5-0.3,0.9C631.1,30.3,631.4,32.2,631.7,34.2z"/>
				<path class="st3" d="M645.5,16.7c0.7,1.4,1.4,2.7,1.9,4c0.5,1.3,1.3,2,2.8,2.1c1.4,0,2.9,0.4,4.5,0.6c-0.6,0.6-1.1,1.1-1.7,1.6
					c-0.8,0.8-1.7,1.6-2.5,2.4c-0.3,0.3-0.4,0.6-0.3,1c0.3,1.9,0.6,3.7,1,5.7c-1.5-0.8-3-1.5-4.4-2.3c-0.9-0.5-1.6-0.6-2.5,0
					c-1.4,0.8-2.9,1.5-4.4,2.4c0.2-1.3,0.4-2.4,0.6-3.5c0.1-0.4,0.1-0.9,0.2-1.3c0.4-1.1,0-1.8-0.8-2.6c-1.2-1.1-2.2-2.3-3.2-3.4
					c1.4-0.2,2.9-0.5,4.5-0.6c1.1-0.1,1.8-0.5,2.2-1.6C644,19.7,644.8,18.3,645.5,16.7z"/>
			</g>
		</g>
		<g>
			<path class="st3" d="M675.5,35.8v-1.4h8.5v1.4l-3.9,0.4h-0.8L675.5,35.8z M680,50.1l3.9,0.4V52h-8.5v-1.4l3.8-0.4H680z
				 M677.5,42.7c0-2.8,0-5.6-0.1-8.3h4.7c-0.1,2.7-0.1,5.5-0.1,8.3v0.8c0,2.9,0,5.7,0.1,8.5h-4.7c0.1-2.7,0.1-5.5,0.1-8.3V42.7z
				 M679.7,43.7v-1.6H690v1.6H679.7z M685.8,35.8v-1.4h8.5v1.4l-3.9,0.4h-0.7L685.8,35.8z M690.4,50.1l3.9,0.4V52h-8.5v-1.4l3.9-0.4
				H690.4z M687.7,42.7c0-2.8,0-5.6-0.1-8.3h4.7c-0.1,2.7-0.1,5.5-0.1,8.3v1c0,2.8,0,5.6,0.1,8.3h-4.7c0.1-2.7,0.1-5.5,0.1-8.5V42.7
				z"/>
			<path class="st3" d="M712.7,43.2c0,6.2-4.1,9.3-8.5,9.3c-4.4,0-8.5-3.1-8.5-9.3c0-6.2,4.1-9.3,8.5-9.3S712.7,36.9,712.7,43.2z
				 M704.2,50.9c2.7,0,3.8-3.3,3.8-7.8c0-4.4-1.1-7.8-3.8-7.8s-3.8,3.4-3.8,7.8C700.4,47.6,701.5,50.9,704.2,50.9z"/>
			<path class="st3" d="M714.7,35.9l1.9-1.5l-0.7,5h-2.2l0.1-5h15.8l0.1,5h-2.2l-0.7-5l1.9,1.5H714.7z M722.2,50.1l4,0.4V52h-9.2
				v-1.4l4-0.4H722.2z M719.4,42.7c0-2.8,0-5.6-0.1-8.3h4.7c-0.1,2.7-0.1,5.5-0.1,8.3v1c0,2.8,0,5.6,0.1,8.3h-4.7
				c0.1-2.7,0.1-5.5,0.1-8.3V42.7z"/>
			<path class="st3" d="M731.1,35.8v-1.4h4.3v1.8H735L731.1,35.8z M735.4,50.1V52h-4.3v-1.4l3.9-0.4H735.4z M733.1,42.7
				c0-2.8,0-5.6-0.1-8.3h4.7c-0.1,2.7-0.1,5.5-0.1,8.3v0.9c0,2.9,0,5.7,0.1,8.4H733c0.1-2.7,0.1-5.5,0.1-8.3V42.7z M741.9,34.3
				l1.9,1.5h-8.5v-1.5h9.4L745,39h-2.2L741.9,34.3z M741.3,43.7h-5.9v-1.6h5.9V43.7z M745.5,47.3l-0.2,4.6h-9.9v-1.5h9l-1.9,1.5
				l0.8-4.6H745.5z M740.5,42.5l0.4-2.6h1.6v5.8h-1.6l-0.4-2.7V42.5z"/>
			<path class="st3" d="M747,35.8v-1.4h8.9v1.4l-4,0.4h-1L747,35.8z M751.4,50.1V52H747v-1.4l3.9-0.4H751.4z M749,34.3h4.7
				c-0.1,2.7-0.1,5.5-0.1,8.3v1.4c0,2.4,0,5.2,0.1,7.9H749c0.1-2.7,0.1-5.5,0.1-7.8v-1.6C749.1,39.9,749.1,37.1,749,34.3z
				 M761.2,46.7L761,52h-9.6v-1.5h8.7l-2,1.5l1.1-5.3H761.2z"/>
			<path class="st3" d="M771.2,48.3c0-1.4-0.7-2.1-2.3-2.8l-1.1-0.5c-3.2-1.4-5-3-5-6c0-3.2,2.6-5.2,6.7-5.2c1.9,0,3.8,0.5,5.1,1.4
				l-0.2,3.8h-2.5l-0.7-4.1l2.2,0.8V37c-1.4-1-2.4-1.6-3.8-1.6c-1.5,0-2.8,1-2.8,2.4c0,1.4,0.8,2.2,2.4,2.9l1.3,0.6
				c3.4,1.5,4.8,3,4.8,5.7c0,3.2-2.4,5.4-7,5.4c-2,0-4.3-0.5-5.8-1.4l0.2-4h2.5l0.7,4.3l-2.1-0.7v-1.3c1.7,0.9,2.8,1.4,4.5,1.4
				C770.2,50.9,771.2,49.8,771.2,48.3z"/>
			<path class="st3" d="M782.1,50.5l2.8-0.4h0.5l2.5,0.4V52h-5.8V50.5z M789.7,34.3h2.8l6,17.7h-4.6l-4.6-14.4l1-1.4L785.2,52h-1.6
				L789.7,34.3z M786.8,45.3h7.3l0.6,1.6h-8.3L786.8,45.3z M791.4,50.6l3-0.4h1.8l3.4,0.4V52h-8.3L791.4,50.6L791.4,50.6z"/>
			<path class="st3" d="M800.7,50.5l2.9-0.4h0.8l3.5,0.4V52h-7.1V50.5z M802.1,35.3l1.5,0.8l-2.9-0.2v-1.5h6.1l9.6,13.2V52h-2.3
				L802.1,35.3z M803,34.3l1.7,1.5V52H803V34.3z M811.6,34.3h7.1v1.4l-2.7,0.4h-0.7l-3.6-0.4L811.6,34.3L811.6,34.3z M814.7,34.3
				h1.7V52l-1.7-1.7V34.3z"/>
			<path class="st3" d="M820.1,35.8v-1.4h4.3v1.8H824L820.1,35.8z M824.4,50.1V52h-4.3v-1.4l3.9-0.4H824.4z M822.1,42.7
				c0-2.8,0-5.6-0.1-8.3h4.7c-0.1,2.7-0.1,5.5-0.1,8.3v0.9c0,2.9,0,5.7,0.1,8.4h-4.7c0.1-2.7,0.1-5.5,0.1-8.4V42.7z M824.4,50.4h3.2
				c3.1,0,5-2.6,5-7.3c0-4.7-1.9-7.3-4.9-7.3h-3.2v-1.5h3.7c5.7,0,9.2,3.3,9.2,8.8c0,5.6-3.8,8.9-9.6,8.9h-3.2L824.4,50.4
				L824.4,50.4z"/>
			<path class="st3" d="M675.5,64.7v-1.4h4.3v1.8h-0.4L675.5,64.7z M680.2,79l3.9,0.4v1.4h-8.6v-1.4l3.9-0.4H680.2z M677.5,71.6
				c0-2.8,0-5.6-0.1-8.3h4.6c-0.1,2.7-0.1,5.5-0.1,8.4v0.8c0,2.9,0,5.7,0.1,8.4h-4.6c0.1-2.7,0.1-5.5,0.1-8.3V71.6z M679.8,71.3h3.2
				c2.7,0,3.5-1.6,3.5-3.3c0-2.2-1.2-3.2-3.4-3.2h-3.3v-1.5h4.4c4.2,0,6.6,1.7,6.6,4.5c0,2-1.5,4.2-6.3,4.4l0-0.3
				c4.2,0.1,5.3,1.5,5.8,4.4l0.7,4.1l-2.2-1.4l4,0.4v1.4c-1.3,0.3-1.7,0.4-2.9,0.4c-2.3,0-3.6-0.7-3.9-2.7l-0.5-3.1
				c-0.3-1.8-0.9-2.6-2.5-2.6h-3.1C679.8,72.8,679.8,71.3,679.8,71.3z"/>
			<path class="st3" d="M693.8,64.7v-1.4h4.3v1.8h-0.4L693.8,64.7z M698.1,79v1.8h-4.3v-1.4l3.9-0.4H698.1z M695.9,71.6
				c0-2.8,0-5.6-0.1-8.3h4.7c-0.1,2.7-0.1,5.5-0.1,8.3v0.9c0,2.9,0,5.7,0.1,8.4h-4.7c0.1-2.7,0.1-5.5,0.1-8.3V71.6z M704.7,63.2
				l1.9,1.5h-8.5v-1.5h9.4l0.2,4.6h-2.2L704.7,63.2z M704,72.6h-5.9V71h5.9V72.6z M708.3,76.2l-0.2,4.6h-9.9v-1.5h9l-1.9,1.5
				l0.8-4.6H708.3z M703.2,71.4l0.4-2.6h1.6v5.8h-1.6l-0.4-2.7V71.4z"/>
			<path class="st3" d="M718.6,77.2c0-1.4-0.7-2.1-2.3-2.8l-1.1-0.5c-3.2-1.4-5-3-5-6c0-3.2,2.6-5.2,6.7-5.2c1.9,0,3.8,0.5,5.1,1.4
				l-0.2,3.8h-2.5l-0.7-4.1l2.2,0.8v1.3c-1.4-1-2.4-1.6-3.8-1.6c-1.5,0-2.8,1-2.8,2.4c0,1.4,0.8,2.2,2.4,2.9l1.3,0.6
				c3.4,1.5,4.8,3,4.8,5.7c0,3.2-2.4,5.4-7,5.4c-2,0-4.3-0.5-5.8-1.4l0.2-4h2.5l0.7,4.3l-2.1-0.7v-1.3c1.7,0.9,2.8,1.4,4.5,1.4
				C717.5,79.8,718.6,78.7,718.6,77.2z"/>
			<path class="st3" d="M724.5,64.7l1.9-1.5l-0.7,5h-2.2l0.1-5h15.8l0.1,5h-2.2l-0.7-5l1.9,1.5H724.5z M732.1,79l4,0.4v1.4h-9.2
				v-1.4l4-0.4H732.1z M729.2,71.6c0-2.8,0-5.6-0.1-8.3h4.7c-0.1,2.7-0.1,5.5-0.1,8.3v1c0,2.8,0,5.6,0.1,8.3h-4.7
				c0.1-2.7,0.1-5.5,0.1-8.3V71.6z"/>
			<path class="st3" d="M738.2,79.4l2.8-0.4h0.5l2.5,0.4v1.4h-5.8V79.4z M745.8,63.2h2.8l6,17.7H750l-4.6-14.4l1-1.4l-5.1,15.8h-1.6
				L745.8,63.2z M742.9,74.2h7.3l0.6,1.6h-8.3L742.9,74.2z M747.4,79.5l3-0.4h1.8l3.4,0.4v1.4h-8.3V79.5z"/>
			<path class="st3" d="M755.4,64.7v-1.4h8.8v1.4l-4,0.4h-0.8L755.4,64.7z M765.7,78.9c2.4,0,3.9-1.6,3.9-5.7v-10h1.7v10
				c0,5.7-2.6,8.1-7.1,8.1c-4,0-6.9-2-6.9-7.2v-2.9c0-2.7,0-5.4-0.1-8.1h4.7c-0.1,2.6-0.1,5.4-0.1,8.1v2.1
				C761.9,77.5,763.1,78.9,765.7,78.9z M770,64.9l-2.9-0.2v-1.4h6.4v1.4l-2.8,0.2H770z"/>
			<path class="st3" d="M774.7,64.7v-1.4h4.3v1.8h-0.4L774.7,64.7z M779.4,79l3.9,0.4v1.4h-8.6v-1.4l3.9-0.4H779.4z M776.7,71.6
				c0-2.8,0-5.6-0.1-8.3h4.6c-0.1,2.7-0.1,5.5-0.1,8.4v0.8c0,2.9,0,5.7,0.1,8.4h-4.6c0.1-2.7,0.1-5.5,0.1-8.3V71.6z M779,71.3h3.2
				c2.7,0,3.5-1.6,3.5-3.3c0-2.2-1.2-3.2-3.4-3.2H779v-1.5h4.4c4.2,0,6.6,1.7,6.6,4.5c0,2-1.5,4.2-6.3,4.4l0-0.3
				c4.2,0.1,5.3,1.5,5.8,4.4l0.7,4.1L788,79l4,0.4v1.4c-1.3,0.3-1.7,0.4-2.9,0.4c-2.3,0-3.6-0.7-3.9-2.7l-0.5-3.1
				c-0.3-1.8-0.9-2.6-2.5-2.6H779V71.3z"/>
			<path class="st3" d="M792.6,79.4l2.8-0.4h0.5l2.5,0.4v1.4h-5.8V79.4z M800.3,63.2h2.8l6,17.7h-4.6l-4.6-14.4l1-1.4l-5.1,15.8
				h-1.6L800.3,63.2z M797.4,74.2h7.3l0.6,1.6h-8.3L797.4,74.2z M801.9,79.5l3-0.4h1.8l3.4,0.4v1.4h-8.3V79.5L801.9,79.5z"/>
			<path class="st3" d="M811.2,79.4l2.9-0.4h0.8l3.5,0.4v1.4h-7.1L811.2,79.4L811.2,79.4z M812.6,64.2l1.5,0.8l-2.9-0.2v-1.5h6.1
				l9.6,13.2v4.5h-2.3L812.6,64.2z M813.5,63.2l1.7,1.5v16.2h-1.7V63.2z M822.1,63.2h7.1v1.4l-2.7,0.4h-0.7l-3.6-0.4V63.2
				L822.1,63.2z M825.2,63.2h1.7v17.7l-1.7-1.7V63.2z"/>
			<path class="st3" d="M831.5,64.7l1.9-1.5l-0.7,5h-2.2l0.1-5h15.8l0.1,5h-2.2l-0.7-5l1.9,1.5H831.5z M839.1,79l4,0.4v1.4h-9.2
				v-1.4l4-0.4H839.1z M836.2,71.6c0-2.8,0-5.6-0.1-8.3h4.7c-0.1,2.7-0.1,5.5-0.1,8.3v1c0,2.8,0,5.6,0.1,8.3h-4.7
				c0.1-2.7,0.1-5.5,0.1-8.3V71.6z"/>
			<path class="st3" d="M856.5,77.2c0-1.4-0.7-2.1-2.3-2.8l-1.1-0.5c-3.2-1.4-5-3-5-6c0-3.2,2.6-5.2,6.7-5.2c1.9,0,3.8,0.5,5.1,1.4
				l-0.2,3.8h-2.5l-0.7-4.1l2.2,0.8v1.3c-1.4-1-2.4-1.6-3.8-1.6c-1.5,0-2.8,1-2.8,2.4c0,1.4,0.8,2.2,2.4,2.9l1.3,0.6
				c3.4,1.5,4.8,3,4.8,5.7c0,3.2-2.4,5.4-7,5.4c-2,0-4.3-0.5-5.8-1.4l0.2-4h2.5l0.7,4.3l-2.1-0.7v-1.3c1.7,0.9,2.8,1.4,4.5,1.4
				C855.5,79.8,856.5,78.7,856.5,77.2z"/>
		</g>
	</g>
	<g>
		<path class="st4" d="M98.4,62.8c0,5.9,1.2,10.9,5.7,10.9c4.5,0,5.7-5.1,5.7-10.9c0-5.9-1.2-10.9-5.7-10.9
			C99.6,51.9,98.4,56.9,98.4,62.8 M104.1,78.9c-9.9,0-12.8-7-12.8-16.1s2.9-16.1,12.8-16.1c9.8,0,12.8,7,12.8,16.1
			C116.8,71.9,113.9,78.9,104.1,78.9"/>
		<path class="st4" d="M72.3,51.9v8.2c3.6,0,6.8,0,6.8-4.3c0-1.2-0.2-4-3.7-4H72.3z M89,78h-2.3c-4.7,0-6.6-3.5-7.8-7.9
			c-0.3-1-0.5-2.2-1.1-3.2c-0.9-1.4-2.3-1.6-3.8-1.6c-0.4,0-1.3,0-1.6,0v7.1h1.9v5.6H63.1v-5.6h2.6V52.1h-2.6v-5.4h12.4
			c6.7,0,10.2,2.9,10.3,8.6c0.1,3.5-1.5,5.8-4.3,7c0.4,0.3,0.8,0.4,1.3,0.9c1.4,1.3,1.9,3.4,2.2,4.6c0.5,2,0.6,5,4,4.9V78z"/>
		<path class="st5" d="M51.4,52.1h-1.8v-5.4h10.9v5.4H58v16c0,9-7.1,10.3-11,10.3c-3.6,0-11.1-1.3-11.1-10.3v-16h-2.6v-5.4h11.4v5.4
			h-2.2v16c0,0.7,0.1,1.5,0.2,2.2c0.2,0.8,0.6,1.7,1.3,2.2c0.8,0.6,1.9,0.9,2.9,0.8c1.2,0,2.3-0.3,3.2-1.1c1.1-1,1.2-2.8,1.3-4.1
			L51.4,52.1L51.4,52.1L51.4,52.1z"/>
		<path class="st4" d="M152.7,63.2h5.3l-2.7-9.2L152.7,63.2z M170.1,72.4V78h-10.9v-5.6h1.9l-1.2-3.8H151l-1.2,3.8h2.3V78h-10.9
			v-5.6h1.9l8.8-25.6h7.2l8.8,25.6h2.7H170.1z"/>
		<path class="st4" d="M129.2,51.9v8.3h1.8c3.1,0,4.6-1.7,4.6-4.2c0-2.8-1.5-4.1-4.6-4.1H129.2z M120,46.7h9.2
			c7.3,0,12.9,1,12.9,9.5c0,6.6-5.3,9.1-11.1,9.1h-1.9v7.1h3V78H120v-5.6h2.6V52.1H120V46.7L120,46.7L120,46.7z"/>
		<polygon class="st5" points="24.5,72.6 17.6,72.6 17.6,64.5 24.5,64.5 24.5,59.1 17.6,59.1 17.6,52.1 24.5,52.1 25.1,54.5 
			30.5,54.5 29.9,46.7 8.7,46.7 8.7,52.1 11,52.1 11,72.6 8.7,72.6 8.7,78 29.9,78 30.8,69.9 25,69.9 		"/>
		<polygon class="st5" points="306.6,72.6 298,61.6 306.1,52.1 307.3,52.1 307.3,46.7 296.8,46.7 296.8,52.1 297.5,52.1 291.5,59.4 
			291.5,52.1 293.7,52.1 293.7,46.7 282.8,46.7 282.8,52.1 284.9,52.1 284.9,72.6 282.8,72.6 282.8,78 293.9,78 293.9,72.6 
			291.5,72.6 291.5,63.3 298.6,72.6 297.5,72.6 297.5,78 308.2,78 308.2,72.6 		"/>
		<path class="st4" d="M211.3,51.9v8.3h1.8c3.1,0,4.6-1.7,4.6-4.2c0-2.8-1.5-4.1-4.6-4.1H211.3z M202.1,46.7h9.2
			c7.3,0,12.9,1,12.9,9.5c0,6.6-5.3,9.1-11.1,9.1h-1.9v7.3h3V78h-12.2v-5.6h2.6V52.1h-2.6V46.7z"/>
		<path class="st4" d="M234.6,63.2h5.3l-2.7-9.2L234.6,63.2z M251.9,72.6v5.4H241v-5.4h1.9l-1.2-4h-8.7l-1.2,4h2.3v5.4H223v-5.4h1.9
			l8.8-25.8h7.2l8.8,25.8H251.9z"/>
		<path class="st4" d="M263.6,51.9v8.2c3.6,0,6.8,0,6.8-4.3c0-1.2-0.2-4-3.7-4H263.6z M280.3,78h-1.5c-4.7,0-7.4-3.5-8.6-7.9
			c-0.3-1-0.5-2.2-1.1-3.2c-0.9-1.4-2.3-1.6-3.8-1.6c-0.4,0-1.3,0-1.6,0v7.3h1.9v5.4h-11.1v-5.4h2.6V52.1h-2.6v-5.4h12.4
			c6.7,0,10.2,2.9,10.3,8.6c0,3.5-1.5,5.8-4.3,7c0.4,0.3,0.7,0.4,1.3,0.9c1.4,1.3,1.9,3.4,2.2,4.6c0.5,2,0.6,5,4,4.9V78L280.3,78z"
			/>
		<path class="st6" d="M189.3,44.5l2.3,7.8c-2.7-1.1-5.3-2.1-8.2-2.8l-14,5.9l7-10.5l14-7.1l10.8,1.5L189.3,44.5z"/>
		<path class="st4" d="M200.8,36.8c-3.3,2.2-8.7,5.1-10.8,5.7c1.2,2.4,2,4.9,2.5,7.3c-2.8-1.4-5.9-3-10.4-3.1l-12.8,8.5l6.7-10.7
			l-7.5-5.1l12-1l5.7-8.7l2.7,7.7C191.6,37.5,196.7,37.2,200.8,36.8L200.8,36.8z"/>
		<path class="st6" d="M223.3,24.6c3.6-2.6,7.3-5.3,11-7.9c-2.8,1.4-5.8,2.8-8.6,4.3c-3.7,1.9-7.3,2.7-11.2,1.7
			c-0.3-0.1-0.6-0.2-0.8-0.4c-2.8,4-5.1,7.8-8.4,11.2c4.8-1.4,8.1-2.3,12.4-4.8c2.3,0.8,8.6,2.5,10.7,4.6
			C227.9,30.1,224.6,27.5,223.3,24.6"/>
		<path class="st5" d="M228,22.7c2-2.1,4.1-4.1,6.4-6c-3.4,1.5-6.5,3.1-9.7,4.3c-3,1.2-6,1.9-9.5,1.6c-0.5,0-1-0.2-1.4-0.4
			c0.2,4.8-2.9,10.5-5.2,15c5.2-3.1,11-5.5,14.8-10.4c4.6-0.1,8,0,14.1,1.3C234.8,25.6,231.2,23.7,228,22.7"/>
		<path class="st5" d="M258.9,10.8c4-1.1,8-1.3,12.1-0.8c-11.4,1.8-15.8,5.6-17.4,11.1c-4.1-0.6-9.1-2-14.6-6.4
			c3.7,0.7,7.8,0.9,13.4-1.2c-0.4-3.2-0.4-6.5,0.4-10.3C254.2,6,256.4,8.6,258.9,10.8"/>
		<path class="st5" d="M262.7,11.2c2.7-0.8,5.5-1.2,8.3-1.2c-9.5,1.9-12.5,6-17.4,11.1c-2.5-1-4.9-2.2-7.1-3.7
			c5.3-0.8,8.6-3.1,10.6-3.7c2.2-3.8,5.2-6.9,8.9-9.3C264.5,6.4,263.4,8.7,262.7,11.2"/>
	</g>
	<g>
		<path class="st7" d="M536.7,25.5c0.2-0.4-0.2-0.8-0.2-0.8s-2.5-4.3-11.5-5.3c-4.8-0.5-11.3,0.5-15.9,2.9
			c-8.3,4.5-9.5,11.8-9.5,11.8c0,0.2-0.1,0.7,0.1,1c0.2,0.2,0.5,0.2,0.8,0.1c2.9-1,11.6-3.9,17.1-5.3c7.8-2.1,14.3-3.3,18.4-4
			C536.3,25.9,536.6,25.8,536.7,25.5L536.7,25.5z M506.6,69.2c-0.2,0.4,0.2,0.9,0.2,0.9c1.9,2.3,10.1,5.3,19,3.1
			c13.7-3.3,16.5-13,16.9-14.3c0.1-0.3,0.1-0.7-0.1-1c-0.2-0.2-0.5-0.2-1-0.1c-9.5,2.2-25.3,7.1-34.4,10.9
			C506.9,68.8,506.7,68.9,506.6,69.2L506.6,69.2z"/>
		<path class="st8" d="M545.6,60.2C541,70.7,532,78,520.2,78.2c-8.6,0.1-16.1-2.8-21.6-7.9l-3.3,1.4l0-5.1c-3.6-4.9-5.7-11-5.7-18
			c0-17.9,13.7-32,32.8-32c3.1,0,5.9,0.5,8.1,1c-3.3-1.1-6.5-1.6-10.1-1.6C499.8,16,486,32.6,486,49.7c0,18.7,14.7,34.3,33.9,34.3
			c18.4,0,28.3-13,31.5-20.7L545.6,60.2L545.6,60.2z"/>
		<path class="st9" d="M540.9,56.5c2.7-0.3,4.6-1.4,5.6-2.4c0.9-0.9,1.2-2.2,1.2-3.1c0-1.4,0-5.7,0-5.7l-7.1,1.5c0,0,0,0.5,0,1.7
			c0,1.1,0.5,1.7,1.7,1.5c0.4-0.1,0.9-0.2,0.9-0.2l0,1.4c0,0,0.1,0.8-1.7,1.1c-2.4,0.4-3.4-1.1-3.5-3.6c0-2.7,1.6-4.3,3.5-4.8
			c2.1-0.5,3.3,0,4,0.1c2.4,0.4,3-3.2,0.9-4c-1.6-0.6-3.7-0.8-5.6-0.4c-2.6,0.5-7.8,2.7-7.8,9.9C533,55.1,537.1,56.9,540.9,56.5
			L540.9,56.5z M537.1,39.3l0-11c0,0,3.2-0.6,4-0.7c2.3-0.3,3.8,1,3.8,2.8c0,1.6-1,2.6-1.9,3.1c0,0,1.6,1.8,2,2.2
			c0.6,0.6,0.5,1.7-0.3,2.2c-0.8,0.5-1.6,0.2-2.1-0.3l-2.6-3c0,0,0,1.9,0,2.7c0,0.8-0.5,1.4-1.3,1.6L537.1,39.3L537.1,39.3z
			 M540.1,33c0,0,1.8-0.7,1.8-2.1c0-1.2-1.2-1-1.8-0.9L540.1,33L540.1,33z M535.3,39.6c0.7-0.1,1.1-0.6,1.1-1.4c0-0.7,0-1.3,0-1.3
			l-3.7,0.8l0-2.1c0,0,1.8-0.4,2.3-0.5c0.6-0.1,1-0.5,1-1.2c0-0.7,0-1.2,0-1.2l-3.2,0.7v-1.7c0,0,1.7-0.3,2.6-0.5
			c0.7-0.1,0.9-0.6,0.9-1.3c0-0.4,0-1.3,0-1.3c-1.6,0.3-4.7,0.9-6.6,1.3l0,11.1C529.7,40.9,533.3,40.1,535.3,39.6L535.3,39.6z
			 M517.7,62.6c0,0,2.2-0.8,2.4-0.8c1.8-0.6,2.4-1.6,2.4-3.5c0-2,0-5.8,0-5.8l5.1,5.9c0.8,0.9,1.9,0.9,2.8,0.7
			c1-0.3,1.8-1.2,1.8-2.4c0-4.2,0-14.6,0-14.6s-1.3,0.3-2.4,0.6c-1.3,0.4-2.2,1.2-2.2,3.3c0,0.7,0,5,0,5s-2.9-3.6-4.7-5.5
			c-1-1-2.7-0.4-2.7-0.4l-2.4,0.7L517.7,62.6L517.7,62.6z M516.2,46.2c0,0-1.5,0.4-2.8,0.9c-1.6,0.6-2.6,1.5-2.6,4c0,2.2,0,14,0,14
			s1.4-0.5,2.7-1c1.9-0.7,2.6-1.7,2.6-3.7C516.1,58.7,516.2,46.2,516.2,46.2L516.2,46.2z M508.5,49.5c-1.4-0.6-2.6,0.1-3.1,0.9
			l-4.3,7.3l0-5.9l-5.1,2.1l0,16.8l3.6-1.5c0,0,0.7-0.2,1.1-0.9c0.4-0.6,0.4-1.6,0.4-1.6l0-5.3l4,4.3c0.9,0.9,2.5,1.4,3.9,0.2
			c1.3-1,1.1-2.8,0.4-3.6l-3.7-3.7c0,0,3.2-5.1,3.7-5.9C510.2,51.4,509.8,50.1,508.5,49.5L508.5,49.5z M501.7,46.8
			c0,2.3-1.6,3.6-3.9,4.5l-4.5,1.9l0-12.2c0,0,2.8-1.2,3.8-1.5c2.6-1,4.2,0.2,4.2,2c0,1.2-0.5,2.2-1.6,3
			C500.8,44.7,501.7,45.6,501.7,46.8L501.7,46.8z M496.5,44.5c0.2-0.1,0.4-0.2,0.6-0.2c0.7-0.3,1.2-0.9,1.2-1.7
			c0-0.9-0.7-1.1-1.7-0.6V44.5l2,2.7c0-0.9-0.7-1.4-2-0.8l0,3c0,0,0.4-0.2,0.7-0.3c0.7-0.3,1.3-0.9,1.3-1.9L496.5,44.5L496.5,44.5z
			 M510.3,36.5c0-1-0.7-1.3-1.6-1.1c-0.7,0.2-1.5,0.5-1.5,0.5l0,7.6c0,0.8-0.1,1.7-1.1,1.9c-0.7,0.2-1.1-0.3-1.1-1.1l0-6.2
			c0-1-0.7-1.3-1.6-1.1c-1,0.3-1.5,0.6-1.5,0.6s0,5.4,0,7.5c0,2.5,1.7,3.8,4.4,3c2.3-0.7,3.9-2,3.9-5.4V36.5L510.3,36.5z
			 M514.2,40.9c0,0,0,2.1,0,3c0,0.8-0.6,1.4-1.3,1.7c0,0,0,0,0,0c-0.6,0.2-1.8,0.6-1.8,0.6l0-11.5c0,0,2.6-0.9,4.1-1.2
			c2.3-0.5,4,0.5,4,2.4c0,1.8-1,2.9-1.9,3.6l2,1.9c0.6,0.6,0.7,1.7,0,2.3c-0.4,0.4-1.5,0.8-2.3-0.1L514.2,40.9L514.2,40.9z
			 M514.2,39.2c0,0,1.8-0.9,1.8-2.4c0-1.3-1.2-1-1.8-0.8V39.2L514.2,39.2z M528.9,34.7l-4.6,1c0,0,0,0.5,0,1.3c0,0.6,0.4,1,1,0.8
			c0.4-0.1,0.7-0.1,0.7-0.1l0,1.3c0,0.5-0.7,0.8-1.5,0.8c-1.1,0-1.7-0.9-1.7-2.5c0-2.1,1-3.4,2.4-3.7c0.7-0.2,1.3-0.1,1.8,0
			c1.2,0.2,1.8-0.4,1.9-1.3c0-1-0.9-1.7-2.9-1.6c-4.3,0.2-6.5,3.2-6.5,6.9c0,3.8,2.5,5.4,5.5,4.9c1.7-0.3,2.5-0.9,3.1-1.4
			s0.8-1.3,0.8-1.9L528.9,34.7L528.9,34.7z"/>
		<path class="st10" d="M511,22.4c-5,2.2-8.4,7.5-8.6,9.7c-0.1,0.9,1.1,1,1.2,0.1C504.7,28.1,507.9,24.2,511,22.4L511,22.4z"/>
		<path class="st10" d="M527.7,26.1c2.7-0.7,4.2-0.8,4.2-2c0-2-5.7-4.4-11-3.9c5.4,0.4,8.6,2.4,8.6,3.9
			C529.5,25,528.7,25.8,527.7,26.1L527.7,26.1z"/>
		<path class="st10" d="M529.3,70.9c4.1-1.6,8-4.6,10.1-9.2c0.6-1.3-1.2-2-1.7-0.4C536.5,64.5,533.9,68.3,529.3,70.9L529.3,70.9z"/>
		<path class="st9" d="M545.5,56.4v0.5h1.1v2.3h0.8v-2.3h1.1v-0.5H545.5L545.5,56.4z M551,59.2l0.7-2.2v2.2h0.8v-2.8h-1.1l-0.7,2.1
			l-0.7-2.1h-1.1v2.8h0.8v-2.2l0.7,2.2L551,59.2L551,59.2z"/>
	</g>
</g>
</svg>
